<?xml version="1.0" encoding="UTF-8" standalone="no"?>
<svg xmlns="http://www.w3.org/2000/svg" height="961.23" viewBox="-677.51000 -500.95000 1324.83000 961.23000" width="1324.83" version="1.1">
<path d="M -53.71 435.61 L -66.8 435.83 L -79.92 436.06 L -93.06 436.29 L -106.22 436.52 L -119.41 436.76 L -132.61 437.02 L -145.83 437.3 L -159.1 437.61 L -172.45 437.95 L -185.9 438.33 L -199.46 438.74 L -213.13 439.16 L -226.89 439.58 L -240.76 440.01 L -254.71 440.43 L -268.71 440.87 L -282.74 441.3 L -296.75 441.73 L -310.68 442.17 L -324.39 442.6 L -337.76 443.03 L -350.78 443.44 L -363.46 443.83 L -375.78 444.17 L -387.65 444.46 L -398.9 444.68 L -409.53 444.85 L -419.51 444.97 L -428.8 445.05 L -437.46 445.11 L -445.48 445.15 L -452.86 445.22 L -459.79 445.28 L -466.37 445.19 L -472.6 444.84 L -478.41 444.22 L -483.8 443.39 L -488.85 442.39 L -493.66 441.26 L -498.4 439.96 L -503.11 438.46 L -507.78 436.73 L -512.39 434.73 L -516.87 432.44 L -521.21 429.82 L -525.31 426.87 L -529.12 423.59 L -532.44 420.24 L -535.77 416.35 L -538.85 412.16 L -541.66 407.69 L -544.14 402.97 L -546.27 397.99 L -548.01 392.8 L -549.31 387.43 L -550.14 381.9 L -550.5 376.28 L -550.37 370.59 L -549.73 364.89 L -548.59 359.23 L -546.92 353.64 L -544.75 348.15 L -542.08 342.77 L -538.92 337.52 L -535.32 332.42 L -531.26 327.51 L -526.82 322.83 L -522 318.42 L -516.88 314.32 L -511.49 310.56 L -505.86 307.1 L -500.04 303.89 L -494.08 300.86 L -488.01 297.92 L -481.83 295.05 L -475.48 292.28 L -468.93 289.6 L -462.21 286.98 L -455.35 284.32 L -448.41 281.53 L -441.42 278.54 L -434.37 275.35 L -427.3 271.99 L -420.28 268.52 L -413.44 264.96 L -406.87 261.31 L -400.81 257.71 L -395.35 254.17 L -390.29 250.47 L -385.57 246.51 L -381.22 242.25 L -377.27 237.7 L -373.74 232.85 L -370.64 227.74 L -367.97 222.39 L -365.74 216.81 L -363.95 211.03 L -362.61 205.1 L -361.75 199.04 L -361.37 192.9 L -361.49 186.72 L -362.15 180.58 L -363.35 174.5 L -365.07 168.53 L -367.33 162.72 L -370.12 157.11 L -373.4 151.74 L -377.17 146.62 L -381.39 141.79 L -386.02 137.24 L -391 132.94 L -396.27 128.81 L -401.82 124.83 L -407.63 120.99 L -412.45 118 L -418.28 114.64 L -424.77 111.23 L -431.52 108.02 L -438.5 104.99 L -445.67 102.06 L -452.99 99.09 L -460.4 95.93 L -467.88 92.53 L -475.44 88.96 L -483.04 85.27 L -490.54 81.46 L -497.87 77.48 L -505 73.28 L -511.89 68.82 L -518.47 64.05 L -524.69 58.96 L -530.45 53.5 L -535.72 47.71 L -540.54 41.65 L -545.02 35.39 L -549.26 28.99 L -553.33 22.49 L -557.22 15.9 L -560.92 9.2 L -564.41 2.37 L -567.66 -4.61 L -570.66 -11.77 L -573.43 -19.08 L -576.04 -26.54 L -578.56 -34.13 L -581.07 -41.86 L -583.62 -49.69 L -586.29 -57.63 L -589.09 -65.68 L -592.02 -73.82 L -595.05 -82.1 L -598.13 -90.54 L -601.24 -99.15 L -604.38 -107.93 L -607.57 -116.86 L -610.83 -125.94 L -614.17 -135.15 L -617.58 -144.48 L -621.05 -153.89 L -624.57 -163.37 L -628.13 -172.89 L -631.72 -182.44 L -635.3 -191.99 L -638.82 -201.39 L -642.18 -210.42 L -645.32 -218.98 L -648.21 -226.99 L -650.81 -234.44 L -653.14 -241.31 L -655.18 -247.56 L -656.92 -253.25 L -658.44 -258.81 L -659.76 -264.4 L -660.85 -270.08 L -661.7 -275.86 L -662.28 -281.67 L -662.51 -287.46 L -662.33 -293.17 L -661.74 -298.75 L -660.8 -304.22 L -659.57 -309.58 L -656.77 -318.63 L -654.75 -323.67 L -652.4 -328.55 L -649.72 -333.25 L -646.74 -337.78 L -643.46 -342.15 L -639.91 -346.37 L -636.11 -350.44 L -632.04 -354.3 L -627.73 -357.9 L -623.18 -361.21 L -618.39 -364.23 L -613.33 -366.98 L -608.02 -369.53 L -602.44 -371.95 L -596.62 -374.3 L -590.59 -376.64 L -584.37 -378.89 L -578.02 -380.92 L -571.55 -382.62 L -565 -383.94 L -558.4 -384.81 L -551.82 -385.21 L -545.28 -385.15 L -538.81 -384.62 L -532.42 -383.67 L -526.1 -382.28 L -519.92 -380.43 L -513.98 -378.13 L -508.3 -375.37 L -502.88 -372.15 L -497.67 -368.51 L -492.66 -364.49 L -487.88 -360.07 L -483.37 -355.27 L -479.14 -350.09 L -475.2 -344.57 L -471.54 -338.75 L -468.1 -332.63 L -464.82 -326.27 L -461.68 -319.72 L -458.68 -312.97 L -455.84 -306.03 L -453.24 -298.88 L -450.92 -291.54 L -448.83 -284.03 L -446.9 -276.36 L -444.98 -268.56 L -442.95 -260.66 L -440.82 -252.66 L -438.71 -244.53 L -436.68 -236.25 L -434.72 -227.84 L -432.75 -219.33 L -430.73 -210.83 L -428.7 -202.65 L -426.65 -195 L -424.58 -187.95 L -422.38 -181.24 L -420.04 -174.83 L -417.58 -168.85 L -414.97 -163.24 L -412.25 -158.01 L -409.4 -153.17 L -406.37 -148.68 L -403.2 -144.74 L -397.6 -139.48 L -394.43 -137.34 L -391.15 -135.73 L -387.63 -134.56 L -383.88 -133.83 L -379.95 -133.55 L -375.89 -133.67 L -371.73 -134.18 L -367.52 -135.1 L -363.34 -136.48 L -359.31 -138.36 L -355.55 -140.76 L -352.15 -143.63 L -349.19 -146.92 L -346.71 -150.56 L -344.75 -154.49 L -343.21 -158.66 L -341.9 -163.03 L -340.7 -167.64 L -339.54 -172.51 L -338.39 -177.66 L -337.31 -183.11 L -336.33 -188.84 L -335.48 -194.84 L -334.74 -201.08 L -334.14 -207.59 L -333.66 -214.33 L -333.29 -221.33 L -332.98 -228.61 L -332.71 -236.18 L -332.45 -244.12 L -332.22 -252.41 L -332.01 -261.06 L -331.83 -270.04 L -331.69 -279.35 L -331.55 -289 L -331.4 -298.98 L -331.16 -309.27 L -330.81 -319.84 L -330.34 -330.7 L -329.79 -341.71 L -329.16 -352.73 L -328.45 -363.66 L -327.65 -374.25 L -326.73 -384.27 L -325.71 -393.59 L -324.57 -402.35 L -323.35 -410.42 L -322.13 -417.77 L -320.86 -424.39 L -319.47 -430.31 L -317.85 -435.73 L -315.9 -440.89 L -313.59 -445.83 L -310.91 -450.57 L -307.93 -455.13 L -304.71 -459.54 L -301.26 -463.81 L -297.57 -467.86 L -293.6 -471.62 L -289.38 -474.99 L -284.93 -477.94 L -280.29 -480.42 L -275.48 -482.41 L -270.48 -483.94 L -265.62 -485.01 L -261.32 -485.63 L -256.92 -485.95 L -251.34 -485.93 L -245.69 -485.4 L -240.03 -484.36 L -234.43 -482.78 L -228.93 -480.67 L -223.59 -478.01 L -218.45 -474.85 L -213.54 -471.2 L -208.9 -467.09 L -204.59 -462.53 L -200.65 -457.55 L -197.1 -452.2 L -193.93 -446.51 L -191.14 -440.5 L -188.7 -434.23 L -186.52 -427.75 L -184.46 -421.06 L -182.38 -414.21 L -180.2 -407.21 L -177.88 -400.05 L -175.39 -392.7 L -172.73 -385.18 L -169.83 -377.52 L -166.62 -369.77 L -163.06 -362.03 L -159.09 -354.38 L -154.68 -346.85 L -149.83 -339.5 L -144.54 -332.36 L -138.82 -325.43 L -132.72 -318.71 L -126.34 -312.11 L -119.77 -305.56 L -113.13 -298.99 L -106.71 -292.51 L -100.9 -286.41 L -95.57 -280.62 L -90.73 -275.18 L -86.24 -269.85 L -82.11 -264.37 L -78.36 -258.66 L -75.07 -252.71 L -72.25 -246.5 L -69.86 -240.04 L -67.88 -233.33 L -66.29 -226.39 L -65.08 -219.23 L -64.3 -211.86 L -63.95 -204.32 L -64.02 -196.62 L -64.53 -188.8 L -65.45 -180.85 L -66.82 -172.85 L -68.68 -164.89 L -71.03 -157.03 L -73.85 -149.24 L -77.05 -141.47 L -80.45 -133.61 L -83.83 -125.6 L -87.08 -117.38 L -90.11 -109.1 L -92.76 -101.19 L -94.97 -93.83 L -96.73 -86.98 L -98.03 -80.64 L -98.85 -74.8 L -99.17 -69.79 L -98.32 -59.53 L -97.1 -54.65 L -95.41 -49.9 L -93.28 -45.24 L -90.78 -40.62 L -87.93 -36.07 L -84.71 -31.65 L -81.1 -27.45 L -77.11 -23.59 L -72.75 -20.13 L -68.06 -17.15 L -63.09 -14.67 L -57.85 -12.76 L -52.39 -11.35 L -46.73 -10.45 L -40.92 -10.03 L -34.98 -10.05 L -28.93 -10.4 L -22.77 -11.04 L -16.51 -11.96 L -10.14 -13.18 L -3.68 -14.69 L 2.83 -16.51 L 9.39 -18.68 L 15.96 -21.26 L 22.46 -24.31 L 28.91 -27.77 L 35.35 -31.55 L 41.88 -35.59 L 48.58 -39.8 L 55.46 -44.16 L 62.44 -48.74 L 69.46 -53.63 L 76.48 -58.84 L 83.52 -64.35 L 90.55 -70.16 L 97.53 -76.28 L 104.44 -82.73 L 111.28 -89.51 L 118.03 -96.58 L 124.69 -103.96 L 131.28 -111.6 L 137.76 -119.52 L 144.09 -127.72 L 150.3 -136.19 L 156.42 -144.91 L 162.43 -153.88 L 168.3 -163.09 L 174.01 -172.55 L 179.56 -182.24 L 184.93 -192.17 L 190.14 -202.3 L 195.14 -212.66 L 199.89 -223.23 L 204.36 -233.99 L 208.53 -244.95 L 212.49 -256.08 L 216.33 -267.36 L 220.16 -278.78 L 224.01 -290.29 L 227.92 -301.92 L 231.88 -313.64 L 235.88 -325.34 L 239.87 -336.65 L 243.52 -346.62 L 247.33 -356.61 L 251.09 -365.96 L 254.82 -374.69 L 258.54 -382.78 L 262.28 -390.15 L 266.3 -397.07 L 270.71 -403.67 L 275.53 -409.9 L 280.71 -415.77 L 286.19 -421.37 L 291.92 -426.75 L 297.89 -431.94 L 304.12 -436.88 L 310.63 -441.52 L 317.45 -445.77 L 324.55 -449.57 L 331.9 -452.92 L 339.49 -455.86 L 347.3 -458.44 L 355.3 -460.72 L 363.47 -462.68 L 371.81 -464.32 L 380.28 -465.6 L 388.87 -466.46 L 397.48 -466.89 L 406.1 -466.88 L 414.73 -466.41 L 423.35 -465.54 L 431.97 -464.44 L 440.61 -463.22 L 449.22 -461.8 L 457.74 -460.02 L 466.12 -457.76 L 474.23 -454.96 L 482.01 -451.6 L 489.39 -447.71 L 496.31 -443.3 L 502.76 -438.44 L 508.72 -433.14 L 514.19 -427.45 L 519.23 -421.42 L 523.92 -415.08 L 528.42 -408.48 L 532.78 -401.66 L 537.04 -394.62 L 541.22 -387.37 L 545.39 -379.93 L 549.6 -372.34 L 553.9 -364.62 L 558.27 -356.85 L 562.56 -349.23 L 566.55 -341.97 L 570.17 -335.09 L 573.3 -328.58 L 575.95 -322.3 L 578.16 -316.11 L 579.96 -309.84 L 581.33 -303.5 L 582.26 -297.06 L 582.82 -290.53 L 583.03 -283.87 L 582.89 -277.11 L 582.34 -270.28 L 581.34 -263.42 L 579.89 -256.56 L 578.55 -251.55 L 576.81 -246.13 L 575.32 -242.09 L 572.52 -235.41 L 569.33 -228.83 L 565.8 -222.33 L 561.95 -215.9 L 557.82 -209.52 L 553.48 -203.16 L 548.92 -196.82 L 544.07 -190.58 L 538.89 -184.48 L 533.38 -178.53 L 527.54 -172.76 L 521.45 -167.06 L 515.24 -161.27 L 509 -155.27 L 502.78 -149.05 L 496.49 -142.63 L 490.13 -136.04 L 483.7 -129.29 L 477.17 -122.4 L 470.61 -115.45 L 464.17 -108.58 L 458.09 -101.97 L 452.48 -95.7 L 447.37 -89.82 L 442.78 -84.36 L 438.67 -79.27 L 434.81 -74.21 L 431.17 -69.07 L 427.78 -63.82 L 424.64 -58.47 L 421.74 -52.99 L 419.11 -47.36 L 416.78 -41.59 L 414.84 -35.66 L 413.34 -29.59 L 412.27 -23.37 L 411.6 -17.02 L 411.34 -10.57 L 411.48 -4.04 L 412.03 2.54 L 412.99 9.14 L 414.36 15.77 L 416.14 22.4 L 418.31 29.04 L 420.87 35.67 L 423.83 42.27 L 427.22 48.79 L 431.02 55.24 L 435.12 61.68 L 439.41 68.19 L 443.87 74.8 L 448.55 81.51 L 453.52 88.27 L 458.77 95.1 L 464.28 102.03 L 469.97 109.16 L 475.79 116.54 L 481.76 124.2 L 487.91 132.12 L 494.24 140.26 L 500.76 148.64 L 507.48 157.24 L 514.4 166.06 L 521.51 175.08 L 528.81 184.29 L 536.28 193.72 L 543.35 202.71 L 551.02 212.6 L 558.74 222.73 L 566.52 233.08 L 574.27 243.49 L 581.72 253.62 L 588.77 263.32 L 595.35 272.54 L 601.41 281.23 L 607 289.45 L 612.16 297.22 L 616.87 304.52 L 621.08 311.33 L 624.69 317.72 L 627.64 323.78 L 629.87 329.56 L 631.37 335.18 L 632.17 340.64 L 632.32 345.9 L 631.98 350.95 L 631.36 355.88 L 630.59 360.78 L 629.66 365.7 L 628.48 370.62 L 626.96 375.5 L 625.06 380.3 L 622.73 384.97 L 619.97 389.56 L 616.78 394.08 L 613.18 398.51 L 609.17 402.79 L 604.77 406.81 L 600 410.44 L 594.89 413.67 L 589.46 416.48 L 583.75 418.83 L 577.79 420.75 L 571.61 422.3 L 565.23 423.54 L 558.67 424.5 L 551.92 425.22 L 544.98 425.74 L 537.83 426.09 L 530.48 426.3 L 522.91 426.38 L 515.1 426.34 L 507.04 426.23 L 498.71 426.14 L 490.12 426.1 L 481.22 426.14 L 471.97 426.23 L 462.38 426.36 L 452.44 426.5 L 442.2 426.61 L 431.65 426.7 L 420.81 426.78 L 409.66 426.88 L 398.22 427.01 L 386.51 427.16 L 374.52 427.36 L 362.28 427.58 L 349.78 427.81 L 337.04 428.04 L 324.05 428.27 L 310.85 428.49 L 297.44 428.71 L 284.73 428.93 L 270.91 429.2 L 256.9 429.51 L 242.67 429.85 L 228.27 430.17 L 213.67 430.47 L 198.92 430.78 L 183.98 431.12 L 168.86 431.46 L 153.58 431.76 L 138.12 432.05 L 122.54 432.37 L 106.8 432.75 L 90.89 433.15 L 74.85 433.54 L 58.66 433.88 L 42.32 434.19 L 25.85 434.54 L 9.26 434.9 L -7.47 435.25 L -24.33 435.56 L -41.31 435.82 z" stroke="#000" stroke-width="8" fill="none"/>
</svg>
