<?xml version="1.0" encoding="UTF-8" standalone="no"?>
<svg xmlns="http://www.w3.org/2000/svg" height="10750.39" viewBox="-667.00000 -364.91500 8827.00200 10750.39300" width="8827.00" version="1.1">
<path d="m479.556 14.747-10.84 7.95-9.755 7.176-8.549 6.317-9.308 6.953-8.116 6.069-11.568 8.648-9.687 7.239-18.996 14.186L381.3 87.82l-10.84 8.086-12.423 9.262-12.567 9.365-11.943 8.895-8.911 6.626-11.729 8.713-9.402 6.985-12.128 9-9.844 7.296-11.103 8.203-9.58 7.066-11.402 8.402-8.9 6.558-9.974 7.35-8.442 6.22-9.499 6.996-7.602 5.6-14.158 10.425-7.521 5.53-5.907 4.341-7.598 5.58-5.721 4.197-7.36 5.395-5.541 4.053-6.75 4.872-7.116 4.965-6.763 4.287-7.421 3.781-7.258 2.187-7.696.433-7.167-1.57-6.294-3.179-10.261-6.408-9.771-7.083-9.334-6.885-11.117-8.185-12.485-9.157-7.186-5.233-8.026-5.765-8.422-5.928-8.9-6.013-7.126-4.6-9.045-5.802-7.55-4.843-9.535-6.11-7.938-5.09-9.992-6.405-8.93-5.722-10.41-6.673-8.613-5.54-11.447-7.423-8.863-5.833-11.713-7.855-9.031-6.182-11.174-7.84-11.923-8.613-10.558-7.818-9.882-7.474-11.296-8.761-9.175-7.292-11.974-9.783-9.8-8.324-11.092-9.809-9.008-8.1-11.164-10.061-9.096-8.288-11.821-11.06-9.003-8.624-11.09-10.734-9.607-9.594-6.184-6.218-8.976-9.006-9.01-9.042-11.046-11.103-8.848-8.891-11.401-11.436-8.621-8.588-10.586-10.244-8.632-8.038-11.386-10.038-10.913-8.805-11.818-8.632-11.293-7.433-12.111-7.234-11.983-6.955-20.77-11.596-20.612-10.132-20.723-9.714-19.65-8.473-19.02-8.132-6.196-2.655-4.301-1.841-10.93-4.67-10.117-4.355-9.328-4.063-12.387-5.4-7.931-3.458-9.953-4.341-5.36-2.34-6.826-2.978-5.421-2.366-6.318-2.759-4.428-1.934-4.501-1.967-2.623-1.146-3.25-1.419-1.915-.838-1.392-.614-1.622-.734-1.337-.626-1.418-.729-1.055-.614-1.19-.76-.942-.666-.597-.493-.544-.498-1.174-1.27-.777-1.065-.247-.388-.595-1.079-.212-.455-.188-.445-.123-.321-.128-.356-.175-.54-.292-1.105-.26-1.54-.094-1.72.168-2.239.651-2.74.796-1.604 1.854-2.304 1.918-1.632 2.515-1.439 2.484-1.023 2.633-1.167 2.547-1.128 3.935-1.752 3.743-1.721 4.845-2.26 4.75-2.223 5.627-2.65 5.308-2.51 7.937-3.777 7.584-3.629 8.586-4.12 9.095-4.35 9.572-4.567 9.478-4.423 12.575-5.395 10.552-4.394 11.62-4.835 12.059-4.916 12.522-4.842 12.253-4.35 13.504-4.286 13.978-3.942 14.356-3.806 14.685-3.75 14.118-3.474 12.6-2.898 14.725-2.93 14.988-2.816 16.152-3.03 15.425-2.888 28.444-5.324 28.825-5.378 30.163-5.606 28.405-5.276 27.673-5.169 27.851-5.292 26.225-5.284 25.406-6.087 11.607-2.975 13.088-3.475 23.177-6.743 22.558-7.045 23.407-8.037 22.123-7.873 19.5-6.905 16.718-5.905 15.03-5.298 13.049-4.589 12.453-4.298 5.84-1.658 7.172-1.324 5.928-.322 6.655.66 11.368 4.419 8.534 7.656 5.75 10.095 2.513 10.722.127 5.245-.198 2.596-1.005 6.2-2.13 8.32-1.789 5.99-2.832 9.3-1.675 5.162-2.166 6.018-2.802 6.87-3.181 6.897-2.692 5.276-4.1 7.284-2.96 4.845-4.65 7.31-3.512 5.31-4.312 6.08-5.029 6.316-5.406 6.167-5.01 5.27-6.043 5.867-5.15 4.625-7.053 5.838-6.07 4.62-7.23 5.035-6.569 4.161-7.78 4.471-6.523 3.397-7.211 3.41-6.864 2.926-9.207 3.476-9.427 3.131-9.589 2.875-9.75 2.64-9.294 2.324-9.369 2.289-7.659 1.87-10.09 2.412-7.794 1.709-10.27 2.179-7.283 1.543-10.416 2.215-8.65 1.847-14.277 3.065-8.71 1.878-9.836 2.125-7.897 1.71-10.172 2.328-7.6 2.067-9.15 2.838-7.816 2.73-8.564 3.71-6.953 4.034-7.576 5.883-5.182 5.048-6.105 7.067-2.934 3.917-4.569 7.296-3.9 8.133-2.75 7.925-1.555 6.557-1.156 8.118-.415 7.082.213 8.522.671 6.413 1.425 7.227 2.057 6.484 5.101 10.285 1.54 2.39 4.845 6.36 3.094 3.497 5.067 5.426 7.442 7.517 6.746 6.106 5.919 4.894 4.542 3.743 6.077 5.007 5.118 4.219 5.969 4.921 5.312 4.384 6.176 5.095 5.068 4.18 6.587 5.441 5.005 4.133 6.5 5.36 5.317 4.383 6.407 5.278 10.063 8.285 11.112 8.925 11.008 7.862 11.423 5.75 6.802 2.345 6.048 1.462 7.408.899 6.505.179 13.217-.549 11.535-1.777L-23.457.933l4.891-2.77 5.7-3.775 5.202-3.81 4.92-4.178 4.449-4.685 3.924-5.14 3.056-4.786 3.212-5.72 2.46-4.812 2.776-6.146 2.078-5.161L21.707-57l1.967-5.859 2.423-7.227 1.884-5.609 2.515-7.437 2.185-6.179 2.887-7.539 2.422-5.77 3.585-7.467 2.875-5.171 4.347-6.69 5.047-6.286 5.956-6.318 4.822-4.686 6.57-6.01 6.38-5.6 6.553-5.578 5.515-4.429 11.207-8.078 7.605-4.813 4.406-2.606 8.548-4.725 7.266-3.678 8.55-3.935 7.124-2.996 8.892-3.633 9.046-3.686 10.104-4.113 8.861-3.613 10.812-4.415 10.738-4.395 12.824-5.26 10.255-4.217 13.936-5.744 11.018-4.544 13.997-5.755 10.804-4.412 16.578-6.723 11.913-4.814 14.429-5.83 13.292-5.37 14.819-5.987 10.295-4.159 14.378-5.806 10.828-4.37 13.14-5.3 11.328-4.572 12.765-5.15 12.525-5.155 22.345-9.835 11.509-4.978 12.086-4.8 11.764-4.591 8.998-3.71 9.89-4.124 6.814-2.837 6.538-2.723 4.715-1.932 5.265-1.676 4.068-.986 4.974-1.184 4.012-.933 4.936-.925 4.33-.586 4.628-.274 3.972.122 5.112.592 3.906.703 4.216 1.008 5.086 1.598 4.975 2.094 4.81 2.597 4.356 2.856 4.456 3.404 3.514 3.08 3.82 3.83 3.172 3.592 3.519 4.288 3.063 3.857 3.534 4.494 3.871 4.923 4.214 5.361 4.337 5.519 4.37 5.557 4.329 5.5 4.86 6.224 4.269 5.524 5.518 7.174 4.18 5.442 5.424 7.065 5.03 6.568 5.352 6.995 3.054 3.999 3.464 4.548 4.101 5.41 1.895 2.502 2.46 3.259 2.013 2.671 2.284 3.039 1.972 2.66 2.275 3.276 1.583 2.59 1.836 3.484 1.212 2.979 1.009 3.975.382 3.826-.13 3.586-.65 3.764-2.494 7.337-4.05 8.049-5.845 8.794-7.181 9.775-8.36 10.802-5.316 6.507-3 3.532-6.016 6.795-4.954 5.259-7.398 7.266-6.138 5.67-7.383 6.521-6.79 5.76-6.035 4.957-7.259 5.842-8.56 6.777-7.161 5.588-9.058 6.968-7.558 5.734-9.556 7.12-11.09 8.054-10.09 7.282-11.585 8.36-10.51 7.58-11.369 8.197-17.76 12.825-20.992 15.23z" stroke="#000" stroke-width="8" fill="none"/>
</svg>
