<?xml version="1.0" encoding="UTF-8" standalone="no"?>
<svg xmlns="http://www.w3.org/2000/svg" height="30532.77" viewBox="-935.79700 -921.22900 15783.20300 30532.77400" width="15783.20" version="1.1">
<path d="m-920.797-906.229 9.435.262 7.754.222 10.26.297 9.756.235 9.872.167 10.615.134 10.8.12 10.354.105 11.195.128 11.385.155 11.557.185 11.032.199 9.761.196 11.995.254 9.276.199 11.54.253 11.675.27 12.53.312 12.68.342 12.819.392 12.187.41 12.306.399 10.085.29 12.515.306 10.249.217 13.523.252 10.4.18 13.721.226 10.571.183 13.098.213 13.203.174 24.987.22 13.461.077 11.852.077 13.62.127 10.268.126 13.757.208 14.698.274 11.296.24 14.83.327 29.886.653 16.814.31 16.012.216 11.612.12 15.24.123 11.71.08 14.443.091 11.785.071 16.363.098 8.212.047 15.538.083 11.923.03 15.63-.072 12.904-.183 15.707-.353 12.019-.32 14.736-.406 11.843-.332 16.21-.45 11.566-.287 14.964-.297 12.167-.167 13.76-.109 11.058-.026 14.31.036 10.898.07 14.252.141 10.917.144 13.468.216 10.975.182 14.398.18 11.067.083 13.691.063 13.824.067 14.736.118 13.994.16 14.918.21 12.104.193 13.417.235 11.246.216 12.3.262 12.583.295 12.277.312 12.097.331 11.223.323 11.755.361 8.818.283 17.07.581 8.892.318 9.902.37 7.818.303 9.841.375 7.766.269 8.95.264 7.952.214 13.275.457 12.49.633 6.508.41 6.268.457 5.669.47 5.113.47 5.284.5 4.848.463 4.839.461 4.46.443 3.257.36 3.596.49 2.967.532 3.854.976 2.567.936 2.864 1.431 2.11 1.382 2.42 2.012 1.81 1.908 1.963 2.686 1.347 2.467 1.307 3.387.745 3.018.543 4.02.19 3.489.033 4.579-.074 4.295-.144 5.272-.14 5.959-.074 5.576-.01 4.349.043 5.069.08 4.034.127 4.208.14 3.501.197 3.827.208 2.975.435 3.699.55 2.656 1.197 3.35 2.315 3.519 1.235 1.233 1.222.976 2.583 1.529 2.19.958 2.88 1.076 2.463.898 3.211 1.2 3.692 1.444 3.502 1.442 3.372 1.458 3.7 1.69 2.635 1.277 3.294 1.775 2.972 1.948 2.695 2.34 1.58 1.809 1.72 2.595 1.673 3.67 1.029 3.364.511 2.31.612 4.017.444 7.34-.024 4.04-.22 5.305-.325 4.581-.557 5.942-.768 6.68-.902 6.666-.866 5.723-1.406 8.397-1.361 7.39-1.768 8.715-2.042 9.072-2.305 9.415-2.409 9.18-2.84 10.076-2.985 9.754-3.734 11.282-3.637 10.306-4.185 11.215-4.245 10.822-3.368 8.283-5.01 11.996-3.991 9.394-5.402 12.558-4.289 9.81-5.486 12.288-3.54 7.798-5.807 12.622-6.326 13.625-6.076 13.041-5.016 10.75-6.67 14.266-6.792 14.493-6.888 14.73-5.278 11.44-6.477 14.31-5.266 11.781-6.87 15.409-5.178 11.603-6.545 14.646-6.203 13.835-5.559 12.242-5.325 11.482-5.342 11.291-3.892 8.156-4.415 9.28-4.051 8.561-4.585 9.652-4.286 8.91-4.865 9.923-3.74 7.46-4.927 9.572-3.774 7.208-4.849 9.282-3.848 7.464-4.217 8.298-3.296 6.541-4.138 8.202-3.052 5.976-3.614 6.945-2.813 5.297-3.484 6.441-2.684 4.888-3.297 5.927-1.623 2.887-2.756 4.87-3.912 6.876-1.806 3.182-2.121 3.749-1.763 3.144-1.873 3.462-1.287 2.521-1.622 3.473-1.055 2.592-1.082 3.32-.555 2.529-.331 3.347.042 2.441.512 3.591.814 2.792 1.68 3.571 1.755 2.565 2.682 2.84 3.458 2.619 3.763 2.146 3.398 1.643 4.903 2.187 5.319 2.306 4.973 2.23 4.783 2.298 3.521 1.852 2.672 1.531 2.87 1.791 2.053 1.375 2.49 1.803 1.735 1.387 2.143 1.984 1.538 1.753 1.537 2.266 1.186 2.447.726 2.297.43 3.075-.093 2.455-.719 3.163-2.493 4.599-4.382 4.169-5.745 4.441-6.78 5.832-7.37 7.908-6.778 7.49-3.903 3.87-4.41 4.17-3.864 3.58-4.65 4.273-5.104 4.676-5.05 4.614-4.51 4.11-4.149 3.768-3.037 2.753-3.307 2.99-2.276 2.05-2.723 2.407-2.035 1.702-2.499 1.886-2.087 1.344-2.688 1.36-2.467.865-3.135.599-2.511.13-3.483-.182-3.048-.407-3.623-.769-2.865-.897-3.39-1.572-2.255-1.507-2.483-2.323-1.576-2.03-1.687-3.02-.793-1.989-.945-3.497-.627-4.125-.316-4.234-.143-4.952-.052-5.507-.029-4.609-.06-6.076-.074-6.933-.047-6.97-.007-5.98.026-8.222.015-6.063V-46.81l.033-9.555.032-9.313L86-75.906l-.02-9.933-.006-19.391.095-19.62.27-20.91.519-21.35.401-11.74.384-9.894.316-8.17.303-8.744.242-8.545.156-7.436.091-5.897.093-7.154.08-5.725.119-7.205.081-5.51.035-8.173-.095-4.7-.577-7.927-1.569-7.588-1.483-3.682-2.02-3.473-1.948-2.613-3.065-3.366-3.613-3.29-4.386-3.39-3.235-2.213-4.687-2.885-5.422-2.982-5.842-2.885-5.832-2.692-6.096-2.771-5.122-2.354-6.869-3.31-5.732-3.025-6.559-3.854-5.29-3.465-6.696-5-4.819-4.164-5.789-5.81-3.99-4.646-4.64-6.24-3.137-4.858-3.66-6.383-2.385-4.473-3.12-5.831-2.879-4.932-3.833-5.775-3.211-4.27-4.57-5.389-3.79-3.975-5.345-4.998-4.742-3.928-5.795-4.241-3.824-2.497-6.422-3.712-5.492-2.72-7.532-3.058-9.693-2.799-4.183-.81-4.635-.615-13.47-.372-8.148.216-5.948.106-8.18-.038-6.832-.18-8.652-.311-7.796-.25-9.163-.225-9.334-.213-10.404-.28-7.382-.274-9.277-.496-5.145-.384-7.83-.831-6.62-1.044-7.33-1.63-7.447-2.322-7.07-2.976-5.877-3.165-6.18-4.185-5.285-4.493-4.753-5.011-3.237-4.108-4.087-6.24-3.019-5.523-3.353-7.084-2.422-5.63-2.734-6.557-3.281-7.19-3.531-6.36-4.315-6.125-8.624-8.685-5.76-4.126-4.738-2.773-6.191-3.062-5.704-2.478-6.821-2.733-5.771-2.228-8.282-3.212-6.651-2.624-7.818-3.112-6.532-2.611-8.272-3.295-6.897-2.721-9.283-3.618-7.858-3.021-9.8-3.718-7.676-2.875-9.668-3.565-8.03-2.887-10.076-3.498-6.939-2.318-10.027-3.157-9.932-2.799-9.85-2.367-8.606-1.746-9.886-1.666-8.134-1.107-10.83-1.15-11.053-.858-10.62-.556-9.453-.313-10.999-.231-9.082-.15-11.37-.176-8.694-.137-12.552-.22-12.068-.226-12.304-.231-10.177-.181-12.735-.19-8.077-.095-13.792-.143-10.411-.105-13.195-.139-9.722-.107-13.199-.15-5.068-.059-11.322-.14-6.843-.103-4.669-.082-10.252-.218-10.755-.297-5.68-.19-8.508-.318-8.128-.33-6.375-.264-7.269-.304-5.352-.224-5.862-.23-4.515-.159-5.625-.173-4.406-.12-5.215-.13-5.054-.124-4.807-.144-7.406-.354-3.234-.2-4.045-.234-3.85-.192-3.447-.213-3.472-.393-2.878-.573-2.352-.708-2.895-1.27-2.277-1.366-2.686-2.11-2.094-2.136-2.16-2.883-1.497-2.675-1.572-3.91-.926-3.29-.875-4.387-.611-4.188-.65-5.214-.596-4.537-.945-5.873-1.318-6.545-2.812-12.333-2.92-13.378-2.915-13.845-2.983-12.715-2.784-10.899-1.283-5.1-1.179-4.77-1.006-4.06-1.11-4.44-1.91-7.522-1.84-7.125-1.321-5.043-.94-3.505-1.937-6.29-.916-2.32-1.253-2.535-1.283-2.058-2.124-2.624-2.27-2.085-2.65-1.81-2.421-1.22-3.054-1.063-3.225-.596-3.406-.034-2.03.297-2.96.958-2.224 1.268-2.06 1.813-1.561 2.093-1.25 2.429-.861 1.962-1.27 2.866-1.043 2.217-1.607 3.106-1.463 2.507-2.129 3.192-2.708 3.418-5.759 5.424-3.349 2.159-3.867 1.7-2.8.746-3.462.42-2.9-.012-3.784-.4-4.537-.912-4.271-1.156-4.81-1.46-4.84-1.41-5.504-1.26-5.824-.812-5.593-.275-5.533.064-4.42.13-5.319.085-4.216-.043-5.031-.115-4.817-.089-4.598-.035-3.58.01-4.48.032-3.28.027-3.87.032-2.097.004-3.815-.022-2.792-.068-3.482-.218-2.908-.366-3.105-.657-2.9-.954-2.692-1.276-2.352-1.516-3.89-3.67-3.161-5.237-1.09-3.372-.607-3.685-.174-3.716.158-3.958.352-3.423.714-4.501.602-2.987 1.218-5.047 1.63-5.69 1.69-5.268 1.645-4.732 2.451-6.384 2.148-5.005 3.2-6.666 2.987-5.57 3.83-6.4 3.462-5.19 4.732-6.29 4.579-5.352 5.35-5.51 9.05-7.809 7.303-5.178 7.303-4.378 7.667-3.892 6.473-2.803 8.752-3.194 7.421-2.242 9.246-2.258 8.906-1.66 9.646-1.281 9.233-.782 8.222-.403 9.596-.239 11.113-.103 10.176.025 11.156.171 10.836.3z" stroke="#000" stroke-width="8" fill="none"/>
</svg>
