<?xml version="1.0" encoding="UTF-8" standalone="no"?>
<svg xmlns="http://www.w3.org/2000/svg" height="15048.50" viewBox="-157.09600 -183.23100 7785.05400 15048.49800" width="7785.05" version="1.1">
<path d="m540.937-168.231 8.585 10.517 11.414 14.178 8.999 11.073 12.298 14.623 6.76 7.788 13.824 15.802 10.988 12.51 13.58 15.394 13.866 15.653 13.3 14.969 14.361 16.144 14.544 16.396 14.698 16.638 13.96 15.86 14.066 16.042 25.8 29.298 26.958 30.674 27.234 31.044 27.273 30.828 22.795 25.771 13.181 14.917 13.005 14.733 20.533 23.36 18.269 20.995 8.617 9.969 7.706 8.974 7.35 8.659 6.79 8.095 5.836 7.04 5.511 6.726 5.072 6.272 4.92 6.267 3.76 5.174 4.462 6.956 3.728 6.707 3.425 7.28 2.226 5.666 2.024 6.214 1.531 5.9 1.447 7.92.623 5.735.315 8.382-.248 7.109-.826 8.254-1.084 6.635-1.82 7.965-2.245 7.73-1.565 4.717-2.811 7.586-2.655 6.427-1.44 3.272-2.354 5.052-2.472 4.9-2.615 4.728-2.101 3.396-3.103 4.288-3.055 3.49-3.957 3.693-4.542 3.386-5.147 3.007-4.626 2.1-6.217 2.05-5.853 1.216-7.543.632-5.999-.2-8.02-1.197-6.604-1.8-6.894-2.746-6.19-3.316-6.697-4.641-6.193-5.498-5.658-6.256-5.528-7.32-5.251-7.823-5.308-8.081-7.818-11.654-4.38-6.413-4.752-6.938-5.404-7.868-4.34-6.308-5.6-8.117-4.546-6.585-3.204-4.65-5.654-8.281-4.904-7.265-3.01-4.494-3.847-5.786-4.95-7.456-3.779-5.59-4.717-6.674-4.314-5.565-5.596-6.285-4.544-4.411-5.916-4.882-5.47-3.707-7.015-3.785-5.663-2.378-7.87-2.451-6.367-1.381-8.646-1.113-6.64-.3-6.565.096-6.46.294-7.835.33-7.703.007-7.537-.508-7.315-1.165-7.431-2.042-5.385-2.132-5.514-2.828-4.862-3.106-5.97-4.752-5.185-5.178-4.723-5.844-3.436-5.214-3.913-7.41-2.018-4.648-2.862-7.847-2.554-8.282-2.6-9.175-2.566-8.895-2.93-9.5-2.84-8.765-3.083-9.115-3.209-8.882-2.458-6.084-3.855-8.29-3.32-6.014-4.692-6.842-5.018-5.74-6.351-5.577-6.89-4.575-7.255-3.73-7.137-2.857-7.898-2.38-6.218-1.418-8.318-1.413-6.99-.792-8.143-.503-8.795-.122-15.357.224-7.49-.151-6.875-.416-7.68-.863-6.565-1.138-7.723-1.903-6.985-2.314-7.073-3.02-6.282-3.334-4.82-3.036-5.57-4.124-4.531-3.95-5.05-5.218-3.772-4.625-3.868-5.617-2.782-4.793-2.975-6.141-2.048-5.16-2.163-6.934-1.337-5.845-1.066-7.221-.393-5.591.022-6.964.497-6.149 1.048-6.615 1.78-7.525 4.197-13.15 2.73-7.543 2.272-6.325 2.961-8.552 2.214-6.64 2.597-8.092 3.835-12.952 1.818-7.904 1.137-8.352-.434-13.43-3.219-13.574-5.205-12.718-6.807-11.43-7.773-9.432-5.597-5.408-4.996-4.12-7.099-5.014-5.803-3.588-8.02-4.398-6.444-3.138-8.25-3.643-7.481-2.998-8.782-3.315-6.725-2.408-9.652-3.198-9.125-2.72-9.685-2.487-9.676-2.019-9.107-1.41-9.106-.908-16.428-.316-16.824 1.258-16.606 2.444-16.964 3.321-9.167 2.301-9.566 2.947-5.238 1.88-8.267 3.392-8.622 4.11-8.452 4.604-7.819 4.715-8.203 5.361-7.689 5.323-7.687 5.617-7.587 5.94-7.486 6.33-4.602 4.151-7.273 7.008-6.21 6.452-7.31 8.225-5.402 6.57-6.373 8.366L73.77-55.4l-5.914 8.496-5.775 8.419-5.973 8.773-4.417 6.405-5.23 7.296-5.132 6.793-4.477 5.729-4.15 5.193L29.31 5.9l-4.324 5.31-3.096 3.78-4.003 4.88-3.028 3.684-3.711 4.46-3.048 3.53-4.135 4.37L.33 39.179l-4.76 3.403-3.88 2.157-5.4 2.267-4.378 1.31-5.657 1.147-4.432.601-6.176.59-11.526.859-13.66 1.149-13.366 1.416-13.464 1.736-12.702 1.876-12.093 1.876-10.05 1.449-9.286 1.151-8.784.765-8.605-.045-4.737-.64-4.273-1.145-3.506-1.492-3.836-2.435-2.371-2.113-2.777-3.343-1.991-3.255-2.134-5.011-1.252-4.7-.948-5.915-.658-5.177-1.095-7.197-1.06-5.803-1.674-7.94-1.465-6.349-4.69-18.678-2.44-9.364-1.027-3.953-2.398-9.243-4.197-16.21-2.533-9.97-2.706-10.839-2.54-10.4-2.686-11.187-2.658-11.198-2.596-11.042-2.387-10.22-2.337-10.059-2.985-12.954-2.207-9.683-2.55-11.297-2.594-11.63-2.01-9.221-1.325-6.218-1.466-7.175-1.014-5.254-1.202-6.765-.771-5.103-.72-6.2-.396-5.389-.164-6.138.102-4.976.498-6.502.7-4.949 1.247-6.047 1.632-6.007 2.052-6.435 2.155-6.156 2.476-6.66 2.64-6.703 2.075-5.026 2.568-6.058 1.929-4.453 2.531-5.785 1.856-4.273 2.03-4.733 1.55-3.667 1.709-4.117 1.747-4.29 1.674-4.202 1.21-3.168 1.367-3.839 1.157-3.62.813-3.02.497-2.421.38-2.941.08-2.335-.233-2.77-.47-2.138-.944-2.605-1.175-2.221-1.39-1.966-1.155-1.302-1.68-1.533-1.244-.922-2.205-1.3-1.795-.794-2.872-.868-2.647-.405-3.542-.003-2.904.423-3.483.997-3.985 1.859-3.857 2.693-2.781 2.592-3.594 4.243-2.461 3.461-2.905 4.72-2.33 4.186-3.182 5.844-2.862 5.06-3.727 6.451-3.948 6.8-3.97 6.698-1.812 3.018-2.384 3.952-3.82 6.298-3.656 6.018-4.905 8.105-3.838 6.357-5.092 8.41-3.912 6.42-5.078 8.275-4.158 6.69-5.054 7.956-3.89 5.943-4.857 7.123-4.025 5.632-5.451 7.13-4.412 5.194-6.159 6.394-5.017 4.608-6.56 5.35-6.517 4.708-8.253 5.262-6.241 3.535-7.962 4.03-6.697 2.99-7.965 3.1-7.647 2.535-9.553 2.6-7.47 1.633-9.375 1.604-9.546 1.164-9.684.805-7.95.45-10.503.37-7.513.13-11.41-.03-8.311-.27-10.946-.711-8.421-.805-10.42-1.277-9.163-1.335-10.531-1.732-5.95-1.076-11.281-2.24-8.657-1.895-10.666-2.561-11.295-3.1-11.2-3.474-10.4-3.6-10.886-4.163-10.707-4.504-18.423-8.77-18.204-10.328-16.644-11.268-15.54-12.562-14.409-13.752-11.667-12.674-7.236-8.654-5.309-6.822-6.628-9.207-4.845-7.288-6.065-9.89-4.457-7.858-5.316-10.003-4.88-9.708-5.426-11.395-4.433-9.633-5.077-11.263-4.425-10.036-4.991-11.563-3.99-9.294-5.208-11.926-3.98-8.745-5.123-10.777-3.947-7.95-7.92-14.53-9.816-13.158-11.993-9.493-13.707-5.358-6.666-1.38-7.23-1.087-14.7-1.091-14.385.313-15.389 1.832-14.173 3.012-14.295 4.308-13.391 5.23-7.47 3.817-6.85 4.718-9.433 10.266-4.105 7.502-2.717 7.116-2.183 7.888-1.383 8.169-.453 6.878.398 8.936 1.06 6.433 2.246 7.753 2.784 6.556 3.975 7.195 4.034 6.058 5.45 7.112 5.928 6.897 5.54 5.996 4.23 4.346 6.827 6.641 7.243 6.585 7.205 6.184 6.624 5.41 8.53 6.627 9.012 6.69 8.898 6.378 9.843 6.893 10.216 7.014 12.473 8.37 10.305 6.762 11.248 7.236 11.553 7.294 11.138 6.888 12.107 7.316 11.654 6.829 12.65 7.165 33.97 17.886 13.573 6.572 11.308 5.342 13.863 6.438 11.54 5.232 13.356 5.806 10.992 4.556 14.533 5.774 11.203 4.358 14.752 5.627 11.36 4.25 15.85 5.733 10.664 3.688 15.222 5.032 12.644 4.004 16.342 5.066 14.593 4.508 27.454 8.648 14.67 4.772 12.862 4.225 15.696 5.099 15.764 5.05 14.886 4.743 15.859 5.066 15.892 5.08 15.007 4.764 15.048 4.707 15.095 4.674 12.273 3.82 16.054 5.04 12.287 3.881 16.053 5.083 12.28 3.873 16.042 5.053 12.214 3.847 15.578 4.91 8.766 2.767 12.371 3.904 10.495 3.313 10.904 3.443 10.246 3.233 6.909 2.182 4.864 1.54 8.09 2.558 4.231 1.335 6.057 1.877 7.391 2.14 5.993 1.455 7.829 1.343 5.954.564 8.157.101 6.267-.452 6.712-.92 6.306-1.22 7.281-1.807 5.976-1.744 7.916-2.611 4.724-1.665 8.16-3.003 6.33-2.51 8.374-3.614 6.482-2.988 8.57-4.195 6.61-3.435 8.695-4.801 6.668-3.912 8.188-5.133 7.124-4.786 8.57-6.196 7-5.439 7.902-6.522 6.862-5.937 7.81-7.008 5.86-5.383 7.825-7.334 8.331-7.996 8.367-8.22 6.465-6.393 8.582-8.468 8.236-8.09 9.447-9.238 6.947-6.762 8.665-8.403 9.315-8.985 8.695-8.349 8.382-8.004 14.122-13.358 7.057-6.587 5.538-5.064 3.49-3.125 4.319-3.789 3.284-2.806 4.28-3.56 4.016-3.224 4.025-3.08 3.293-2.386 4.37-2.918 3.14-1.868 4.615-2.153 3.956-1.05 4.746-.06 3.301.866 3.618 2.106 2.168 2.127 2.407 2.952 2.347 2.749 2.228 2.35 1.822 1.751 2.148 1.864 2.105 1.634 2.736 1.863 2.25 1.32 3.129 1.508 2.313.867 3.214.86 2.917.446 3.424.094 3.723-.42 3.55-.937 3.134-1.303 3.584-2.084 2.685-1.96 3.643-3.072 3.328-3.056 4.088-3.839 4.553-4.076 5.439-4.48 6.037-4.592 12.392-8.048 13.355-6.48 14.36-4.665 15.584-2.962 15.583-1.022 15.375.914 15.523 2.88 8.632 2.488 9.227 3.311 9.296 3.94 9.377 4.57 7.27 3.922 9.596 5.589 8.002 4.907 9.833 6.292 7.539 5.148 9.807 7.216 7.438 5.884 9.05 7.684 5.59 5.043 9.355 8.998 8.105 8.354 9.015 9.894 6.315 7.23z" stroke="#000" stroke-width="8" fill="none"/>
</svg>
