<?xml version="1.0" encoding="UTF-8" standalone="no"?>
<svg xmlns="http://www.w3.org/2000/svg" height="41197.02" viewBox="-720.23400 -56.89900 27654.85600 41197.02300" width="27654.86" version="1.1">
<path d="m321.144 157.327-11.38-.011-19.157-.054-10.32-.049-11.018-.062-10.444-.046-11.826-.006-8.591.024-9.967.05-8.016.056-12.088.098-8.78.056-11.559.04-8.206.018-11.03.015-11.166-.006-11.294-.033-9.314-.038-11.599-.036-10.28-.006-13.4.038-9.045.05-12.187.094-10.784.097-13.259.122-10.26.09-13.612.107-11.378.078-14.017.084-10.872.055-14.41.06-14.54.05-14.565.046-13.724.06-13.713.094-12.004.116-14.577.168-10.288.106-14.574.09-7.712.027-13.708.072-14.561.157-13.724.205-10.322.159-14.644.195-12.06.11-13.76.043-11.148-.018-15.311-.016-14.2.062-13.734.111-13.049.132-21.418.206-19.314.101-17.834.138-14.26.192-8.43.132-6.198.09-7.906.084-6.48.039-7.897.031-6.971.03-6.875.037-7.995.053-6.4.05-6.496.058-5.35.049-5.662.037-3.906.007-5.032-.02-3.512-.058-3.742-.13-4.098-.246-3.577-.305-2.929-.312-3.851-.524-3.62-.675-3.624-.88-2.951-.887-3.825-1.403-2.894-1.263-3.742-1.901-3.027-1.784-3.363-2.289-2.83-2.222-2.89-2.607-2.906-3.04-2.7-3.288-2.612-3.749-2.334-3.99-1.95-3.956-1.832-4.414-1.578-4.62-2.083-8.296-1.55-8.636-1.596-9.09-1.803-8.831-2.472-9.373-3.251-8.388-2.235-4.359-2.7-4.407-2.836-3.978-3.298-4.064-3.563-3.944-3.566-3.623-2.81-2.645-4.167-3.58-3.586-2.721-4.273-2.823-3.324-1.913-4.884-2.423-3.891-1.664-4.946-1.88-5.44-1.874-5.616-1.837-5.425-1.736-5.904-1.833-5.669-1.706-6.084-1.87-6.081-2.032-6.029-2.272-5.599-2.39-5.814-2.858-5.617-3.25-10.1-7.524-3.668-3.353-4.347-4.326-3.413-3.645-4.302-4.939-3.156-3.9-3.924-5.275-3.012-4.508-2.969-5.003-2.492-4.828-2.362-5.319-1.814-4.713-1.848-5.53-1.403-4.864-1.468-6.064-.96-4.985-.871-6.19-.534-6.238-.202-6.27.078-5.104.39-6.285.4-3.921.94-6.65.945-5.06 1.543-6.57 1.544-5.354 2.08-6.03 2.419-5.912 2.758-5.777 3.28-5.977 3.61-5.811 3.657-5.33 4.128-5.52 4.105-5.059 4.593-5.217 4.85-5.017 4.2-3.94 5.045-4.252 5.632-4.194 5.518-3.668 4.604-2.825 5.786-3.317 4.784-2.58 6.36-3.22 4.564-2.154 6.189-2.703 5.55-2.232 6.568-2.435 6.823-2.288 7.067-2.107 5.919-1.567 7.949-1.845 6.239-1.256 7.357-1.284 8.534-1.253 7.696-.942 8.897-.9 8.524-.688 7.007-.436 9.243-.395 7.68-.192 8.847-.103 7.24-.014 9.537.054 7.34.08 8.524.098 9.722.09 9.203.065 7.519.053 9.31.06 8.194.022 8.819-.036 7.678-.086 9.487-.18 7.14-.19 9.54-.307 7.716-.246 9.663-.21 6.908-.046 7.888.055 11.71.202 5.928.143 5.358.206 9.795.764 9.948 1.576 9.622 2.595 9.558 3.954 4.492 2.423 4.795 3.064 4.424 3.352 4.022 3.598 2.831 2.917 3.312 3.946 2.212 3.077 2.36 3.835 1.655 3.14 1.847 4.141 1.307 3.478 1.324 4.308.793 3.36.666 3.939.379 3.748.138 4.622-.202 4.704-.518 4.78-.774 4.542-1.076 4.558-1.104 3.702-1.628 4.539-1.538 3.664-1.319 2.794-1.437 2.765-1.555 2.733-2.909 4.556-2.448 3.391-3.262 4.066-2.39 2.723-3.44 3.604-3.892 3.688-4.369 3.715-4.598 3.466-5.118 3.36-3.836 2.226-5.477 2.818-4.382 1.986-5.457 2.17-5.583 1.911-5.359 1.58-5.782 1.463-5.87 1.23-5.586.887-5.64.578-5.677.26h-4.985l-6.067-.18-4.64-.203-5.724-.29-4.654-.294-5.737-.464-4.679-.451-6.181-.655-3.684-.403-6.4-.7-8.962-.966-6.44-.695-18.645-1.955-12.397-1.065-6.026-.41-6.203-.334-10.9-.335-9.451-.02-8.96.163-8.488.357-4.542.332-4.41.45-4.488.622-3.921.708-2.948.651-3.517.915-2.857.85-3.504 1.205-3.666 1.506-3.293 1.653-4.716 3.035-3.852 3.281-2.285 2.505-1.525 2.038-1.58 2.504-1.15 2.123-1.274 2.744-.894 2.334-.883 2.99-.54 2.697-.349 3.352-.053 2.631.213 3.752.365 2.784.704 3.497.858 3.095 1.278 3.502 1.38 2.982 1.86 3.3 1.842 2.829 2.313 3.197 1.872 2.372 2.857 3.31 1.986 2.09 3.28 3.123 2.686 2.306 3.515 2.785 7.095 5.253 3.246 2.32 3.882 2.694 8.478 5.607 4.625 2.94 5.116 3.19 3.729 2.305 5.442 3.334 4.302 2.61 5.116 3.079 4.917 2.945 5.42 3.245 10.542 6.231 10.507 5.992 6.714 3.706 5.193 2.8 6.868 3.586 5.293 2.65 7.37 3.51 5.349 2.418 7.015 3.021 5.412 2.226 7.126 2.776 5.487 2.008 6.79 2.321 5.543 1.757 6.844 1.987 6.012 1.579 7.313 1.723 5.16 1.084 6.815 1.263 5.393.87 6.898.952 4.826.57 6.363.654 6.32.554 7.041.532 4.64.308 6.086.344 6.314.268 6.105.182 5.454.11 8.474.08 7.616-.066 3.51-.088 2.994-.113 2.492-.132 3.124-.224 2.282-.217 2.895-.352 4.319-.7 2.85-.61 3.126-.83 3.197-1.042 3.267-1.272 3.126-1.427 3.33-1.764 2.721-1.647 3.259-2.243 2.436-1.894 3.09-2.712 2.255-2.254 2.795-3.165 2.02-2.583 2.479-3.583 1.759-2.892 1.868-3.5 1.477-3.175 1.638-4.102 1.204-3.492 1.434-4.769 1.08-4.115 1.065-4.611.832-4.165.822-4.992.646-4.832.624-5.351.604-5.146.841-6.04.851-4.993 1.433-7.07 1.115-4.783 1.734-6.369 2.19-6.703 2.56-6.607 2.196-4.977 2.94-6.057 3.153-6.043 3.782-6.832 2.904-4.945 4.009-6.476 3.212-4.978 4.367-6.569 4.258-6.258 4.103-5.937 3.627-5.196 4.83-6.865 3.73-5.281 4.58-6.5 4.533-6.469 4.475-6.396 3.846-5.504 4.269-6.13 3.32-4.762 3.852-5.46 3.166-4.37 3.461-4.612 2.743-3.51 3.374-4.087 2.143-2.46 3.734-4.06 2.937-2.992 3.726-3.515 3.373-2.908 4.242-3.302 3.615-2.507 4.526-2.784 3.54-1.964 4.423-2.255 4.213-1.984 5.145-2.203 4.656-1.749 5.039-1.616 4.823-1.274 4.898-1.027 4.033-.66 5.026-.647 4.133-.421 5.468-.417 2.925-.136 5.565-.048 5.286.224 5.978.59 4.33.632 5.341.977 4.345.953 5.349 1.341 4.01 1.124 5.673 1.779 4.319 1.53 5.615 2.242 4.292 1.904 5.623 2.714 4.31 2.229 5.639 3.102 4.324 2.504 5.012 2.982 5.705 3.487 5.742 3.59 4.436 2.788 5.867 3.665 5.938 3.69 5.615 3.522 5.99 3.843 5.707 3.67 5.813 3.674 5.174 3.233 5.989 3.767 4.945 3.156 6.652 4.286 6.928 4.481 6.756 4.38 5.532 3.584 7.246 4.685 5.547 3.592 7.511 4.878 5.536 3.599 8.18 5.3 4.994 3.222 8.785 5.649 6.955 4.46 8.825 5.664 7.916 5.097 9.124 5.893 9.706 6.28 9.711 6.275 5.72 3.685 11.424 7.33 7.39 4.712 10.148 6.433 6.641 4.183 8.56 5.34 8.168 5.033 7.785 4.76 6.144 3.75 7.871 4.815 5.894 3.613 7.049 4.32 4.251 2.6 6.925 4.214 8.855 5.354 6.357 3.817 4.808 2.875 5.867 3.493 5.808 3.451 6.07 3.603 5.51 3.234 5.528 3.144 5.173 2.788 4.821 2.427 4.472 2.066 3.166 1.304 3.867 1.368 3.178.946 3.7.902 3.281.609 3.768.467 2.347.161 3.694.02 3.557-.285 3.627-.634 3.345-.885 3.35-1.137 2.718-1.109 3.469-1.71 1.398-.795 1.774-1.102 3.264-2.33 2.397-1.997 2.962-2.876 1.928-2.196 2.467-3.332 2.256-3.772 1.779-3.763 1.38-3.716.721-2.408.768-3.218.72-4.345.256-2.614.112-4.503-.215-3.745-.634-4.569-.75-3.482-1.32-4.52-1.14-3.17-1.748-4.221-1.576-3.438-2.264-4.508-2.514-4.488-2.808-4.379-2.182-2.972-3.177-3.77-3.708-3.765-4.012-3.555-4.28-3.354-4.26-2.991-4.205-2.72-8.1-4.827-9.55-5.09-10.431-4.795-6.387-2.602-6.09-2.348-10.585-4.298-10.466-5.278-5.725-3.535-5.319-3.805-4.587-3.764-4.16-3.902-3.046-3.241-3.492-4.268-2.296-3.253-2.423-3.988-1.557-2.981-1.9-4.28-1.314-3.592-1.207-4.16-1.327-7.63-.118-7.64 1.01-7.323 1.102-4.402 1.375-4.081 1.948-4.481 2.099-3.868 2.604-3.953 2.798-3.544 2.309-2.53 3.56-3.389 2.714-2.242 3.853-2.76 3.575-2.163 4.296-2.184 4.783-2 4.983-1.68 3.927-1.061 5.274-1.075 5.086-.67 5.176-.33 5.578.008 5.31.331 4.685.535 5.394.871 4.41.885 5.807 1.334 4.473 1.104 5.883 1.565 4.847 1.423 5.538 1.77 4.498 1.535 5.532 1.982 3.465 1.28 5.569 2.07 4.556 1.657 6.016 2.121 5.704 1.958 5.374 1.826 4.668 1.573 6.453 2.184 4.435 1.509 5.002 1.761 3.52 1.3 4.738 1.83 3.333 1.358 3.935 1.71 2.692 1.258 2.981 1.492 2.992 1.63 2.611 1.56 2.236 1.459 2.7 1.95 2.132 1.73 2.49 2.314 1.894 2.023 2.284 2.829 1.6 2.302 1.81 2.992 1.362 2.548 1.683 3.469 1.191 2.756 1.449 3.965.853 2.967.802 3.748.461 3.113.385 4.164.15 3.253.011 4.329-.175 3.617-.39 3.91-.507 3.41-.911 4.472-.655 2.632-1.183 4.215-2.305 7.682-2.173 7.78-2.014 8.16-1.533 7.602-.97 6.771-.39 6.154.375 6.1.592 2.963.783 2.608.724 1.883L602-41.899l1.079 1.9 1.414 2.055 1.29 1.57 1.75 1.815 1.668 1.49 1.891 1.449 2.275 1.45 2.255 1.198 1.902.912 2.41 1.104 2 .893 2.625 1.188 1.995.943 2.413 1.233 1.902 1.096 2.389 1.574 2.766 2.202 2.08 2.006 1.158 1.28 1.1 1.344L641.8-11.2l1.515 2.462 1.482 2.84 1.36 3.115.943 2.582 1.086 3.67.903 4.01.686 4.077.46 3.505.471 4.822.344 5.033.19 5.167.024 5.578-.293 7.245-.427 5.117-.47 4.206-.77 5.573-.892 5.334-1.15 5.722-1.044 4.393-1.512 5.4-1.93 5.665-2.299 5.526-2.498 5.031-5.188 8.75-5.861 8.34-6.812 8.083-7.981 7.62-8.258 6.422-9.343 5.898-5.31 2.85-5.52 2.68-10.501 4.5-11.91 4.143-6.824 1.825-7.017 1.412-6.715.877-6.775.418-5.537.06-7.273-.119-5.603-.1-6.954-.061-5.704-.008-7.581.01-5.977.004-8.2-.01-7.037-.021-8.113-.054-6.6-.079-8.627-.152-5.086-.103-8.963-.167-7.744-.123-9.245-.127-8.415-.102-9.98-.095-9.038-.053-10.634-.034-10.239-.021-11.938-.02-12.29-.016-12.622-.009z" stroke="#000" stroke-width="8" fill="none"/>
</svg>
