<?xml version="1.0" encoding="UTF-8" standalone="no"?>
<svg xmlns="http://www.w3.org/2000/svg" height="49735.32" viewBox="833.60000 -20.40000 9152.37900 49735.31500" width="9152.38" version="1.1">
<path d="m1191.9 33.655 7.495 1.666 8.5 2.03 7.414 1.85 5.282 1.362 9.468 2.559 7.843 2.272 6.247 1.927 9.314 3.066 7.21 2.517 8.237 3.01 6.18 2.343 8.236 3.255 8.214 3.418 8.692 3.817 8.658 3.996 8.136 3.886 8.138 3.96 8.563 4.228 8.29 4.187 7.462 3.851 7.49 3.89 5.002 2.579 6.364 3.243 6.072 3.079 6.014 3.04 5.258 2.608 4.987 2.357 5.14 2.22 4.773 1.793 3.863 1.224 4.735 1.174 3.824.663 4.993.478 3.777.072 4.85-.281 3.594-.515 4.472-1.064 3.5-1.202 3.864-1.708 2.879-1.452 3.855-2.085 3.358-1.963 3.744-2.424 2.852-2.09 3.2-2.68 2.211-2.049 3.204-3.007 2.338-2.024 2.967-2.277 3.088-1.996 3.203-1.65 2.037-.838 3.274-1.02 2.867-.558 3.228-.244 2.567.114 3.27.548 2.27.644 3.185 1.273 2.55 1.369 2.096 1.404 2.283 1.894 2.35 2.485 2.046 2.805 1.835 3.32 1.417 3.405 1.178 3.864.67 3.104.536 3.979.19 3.356-.087 4.554-.322 3.613-.773 4.887-.879 3.835-1.43 4.805-1.449 3.95-2.123 4.9-2.146 4.317-2.749 4.964-2.247 3.746-3.418 5.355-2.764 4.146-3.869 5.566-3.4 4.64-6.893 8.71-4.005 4.715-5.136 5.79-5.409 5.842-5.322 5.545-5.878 5.938-4.287 4.223-6.263 6-4.944 4.59-6.665 6-5.25 4.571-7.075 5.928-6.001 4.823-7.053 5.445-5.872 4.372-20.23 14.147-15.24 9.729-14.61 8.684-12.757 7.252-12.914 7.067-11.42 5.968-10.743 4.998-9.15 3.503-8.684 2.594-7.996 1.536-3.252.334-3.386.177-3.777.035-3.048-.087-3.782-.243-3.387-.341-4.51-.666-3.62-.72-4.501-1.144-4.589-1.481-4.359-1.714-4.644-2.082-4.466-2.059-4.915-2.091-4.78-1.754-5.145-1.522-4.264-.948-4.94-.78-5.659-.552-4.143-.204-5.505-.014-5.266.26-5.658.575-5.72.868-4.43.847-5.863 1.333-5.578 1.47-5.61 1.697-5.62 1.962-4.91 1.95-5.64 2.499-5.044 2.45-6.332 3.26-4.679 2.501-6.49 3.557-5.504 3.084-7.5 4.27-7.346 4.206-6.074 3.463-5.585 3.158-7.785 4.352-6.29 3.466-7.474 4.01-6.911 3.544-7.228 3.486-7.095 3.16-6.596 2.647-5.298 1.909-6.865 2.163-5.203 1.39-6.773 1.486-5.167.903-6.773.907-6.813.634-6.473.372-4.904.137-7.39-.048-5.793-.27-7.116-.615-7.644-1.018-5.614-.973-4.381-.885-7.564-1.772-2.7-.71-10.873-3.313-6.388-2.285-7.328-2.883-5.983-2.517-7.873-3.476-6.545-2.963-7.102-3.204-8.18-3.61-12.647-5.398-7.81-3.247-5.416-2.205-6.669-2.646-4.298-1.667-3.988-1.504-3.913-1.4-4.234-1.393-2.676-.783-3.581-.9-2.688-.563-3.345-.574-2.813-.38-3.612-.332-3.027-.13-3.953.078-2.995.274-3.73.598-3.987.963-4.05 1.39-2.762 1.233-3.368 1.88-2.202 1.517-2.662 2.151-2.447 2.275-2.22 2.338-2.142 2.558-2.409 3.417-1.704 2.936-1.802 3.807-1.366 3.507-1.473 4.427-1.107 3.468-1.207 3.491-3.568 8.073-4.346 6.733-5.141 5.847-5.367 4.89-3.424 2.728-3.286 2.402-9.189 5.847-3.626 1.991-3.475 1.736-3.532 1.584-3.143 1.263-3.91 1.377-3.07.927-4.135 1.037-4.288.828-4.162.568-4.567.385-4.426.17-4.836.002-4.978-.147-5.108-.285-5.223-.428-5.331-.58-5.098-.69-3.87-.616-4.226-.762-5.573-1.145-4.29-.978-5.332-1.306-4.747-1.218-5.55-1.47-7.533-2.043-6.301-1.74-10.5-2.971-9.34-2.74-12.257-3.738-13.213-4.152-13.244-4.251-7.48-2.45-14.308-4.754-8.247-2.798-7.837-2.703-8.886-3.114-6.461-2.284-8.495-3.028-8.04-2.908-8.082-2.971-8.62-3.223-8.657-3.294-8.692-3.365-15.917-6.313-15.987-6.543-14.994-6.382-15.476-6.934-15.453-7.287-15.405-7.605-15.377-7.888-15.368-8.106-15.86-8.602-15.31-8.529-8.649-4.932-8.657-5.032-10.706-6.379-8.562-5.236-2.962-1.842-7.697-4.868-7.772-5.029-4.378-2.868-7.113-4.685-6.34-4.186-7.769-5.133-5.808-3.855-2.895-1.93-5.137-3.439-3.643-2.445-4.156-2.797-4.065-2.743-3.602-2.436-2.815-1.913-3.546-2.441-2.607-1.851-3.283-2.444-3.164-2.511-2.866-2.462-2.23-2.084-2.775-2.85-2.012-2.272-2.479-3.092-1.774-2.457-2.16-3.33-1.42-2.441-1.846-3.582-1.254-2.836-1.336-3.6-.986-3.233-.91-3.762-.493-2.626-.636-4.868-.259-3.232-.219-4.299-.18-4.372-.42-7.873-.846-7.725-.745-4.263-2.094-7.892-1.627-4.383-1.764-4.087-2.096-4.317-1.891-3.545-2.479-4.288-2.028-3.257-2.844-4.215-2.512-3.41-3.262-4.057-2.648-3.034-3.661-3.864-2.713-2.65-3.78-3.437-3.203-2.723-4.36-3.47-4.28-3.185-4.44-3.157-4.107-2.858-4.36-2.998-4.653-3.164-3.501-2.357-6.278-4.18-5.08-3.341-6.564-4.265-7.334-4.7-7.24-4.593-7.546-4.768-6.319-3.99-8.553-5.393-6.748-4.23-9.113-5.659-7.737-4.752-9.092-5.522-7.583-4.544-10.175-5.99-7.97-4.618-10.658-6.09-8.331-4.69-9.15-5.068-19.52-10.468-20.83-10.6-11.361-5.495-12.997-5.993-17.659-7.522-12.756-4.977-6.813-2.52-12.142-4.236-10.644-3.408-12.768-3.689-9.557-2.473-12.193-2.816-8.4-1.74-11.567-2.164-9.306-1.57-10.392-1.612-8.967-1.295-10.2-1.396-8.86-1.186-9.868-1.332-8.26-1.13-10.002-1.334-8.274-1.044-7.711-.944-6.266-.8-10.003-1.455-5.84-.98-4.007-.726-4.845-.929-3.484-.713-3.98-.938-3.17-.923-3.44-1.28-2.313-1.09-2.642-1.563-1.793-1.322-2.118-1.94-1.534-1.777-1.568-2.355-.95-1.923-.83-2.47-.37-2.043-.078-2.507.261-2.167.679-2.512.875-2.103 1.501-2.597 1.574-2.038 2.53-2.457 2.278-1.653 3.157-1.742 2.998-1.287 3.88-1.28 3.136-.75 4.307-.654 4.505-.276 3.561.043 4.81.365 4.99.662 3.958.681 5.071 1.034 5.317 1.224 6.32 1.603 5.93 1.614 5.072 1.431 4.895 1.38 6.813 1.836 7.664 1.88 14.405 2.998 8.133 1.38 8.42 1.163 15.936 1.434 16.715.607 7.762.047 8.02-.085 10.925-.281 10.733-.373 9.744-.371 11.537-.473 11.964-.517 10.01-.439 13.452-.59 9.734-.417 14.148-.58 11.06-.435 13.935-.532 14.254-.534 14.57-.542 12.058-.442 14.183-.48 12.442-.355 15.628-.326 16.86-.166 13.065.016 18.383.217 31.157.767 16.958.605 17.224.788 18.397 1.079 18.71 1.353 18.83 1.617 19.071 1.913 14.655 1.643 18.162 2.196 19.225 2.488 18.952 2.621 15.395 2.213 18.483 2.58 15.045 1.947 17.003 2.117 14.709 1.87 16.583 2.189 14.354 1.927 16.184 2.192 14.017 1.927 16.782 2.35 13.66 1.939 15.454 2.196 12.413 1.749 15.121 2.093 13.055 1.788 14.625 2.006 11.57 1.599 14.628 2.043 10.791 1.518 13.608 1.902 10.805 1.491 12.582 1.727 9.22 1.273 11.55 1.613 8.463 1.192 10.664 1.496 4.271.592 10.084 1.376 9.635 1.282 8.626 1.133 3.661.48 13.303 1.74 3.517.475 8.427 1.183 7.777 1.129 7.641 1.123 4.239.628 7.437 1.103 6.396.945 7.14 1.06 6 .904 6.833 1.05 4.766.746 5.274.84 3.832.63 3.538.611 4.324.82 4.03.88 3.56.9 3.662 1.047 3.588 1.158 3.291 1.218 2.608 1.092 3.17 1.489 2.584 1.342 3.183 1.829 3.128 2.025 3.249 2.409 3.097 2.677 2.284 2.216 2.926 3.085 2.589 2.854 2.492 2.749 2.99 3.207 2.751 2.844 2.903 2.827 3.535 3.162 3.794 3.012 3.262 2.317 4.489 2.786 3.272 1.753 4.714 2.138 3.643 1.395 4.54 1.514 4.592 1.335 4.97 1.268 4.814 1.062 9.494 1.608L848.6-5.4l10.675 1.076 12.98 1.331 13.642 1.546L901.022.236l6.632.689 3.635.363 9.023.866 7.062.655 8.88.816 7.351.679 9.219.871 8.188.802 9.547.97L983.343 8.3l9.929 1.076 19.012 2.051 10.969 1.162 6.49.682 8.498.896 10.506 1.116 9.233.992 11.266 1.226 8.661.951 11.382 1.263 8.72.976 11.43 1.293 8.648.99 11.133 1.288 9.002 1.058 10.106 1.227 8.07 1.039 9.744 1.37 8.365 1.321 9.922 1.783z" stroke="#000" stroke-width="8" fill="none"/>
</svg>
