<?xml version="1.0" encoding="UTF-8" standalone="no"?>
<svg xmlns="http://www.w3.org/2000/svg" height="6363.46" viewBox="-346.19000 -633.99000 2334.01000 6363.46000" width="2334.01" version="1.1">
<path d="m-331.19-89.43 3.42-10.61 3.49-10.73 6.68-20.41 6.78-20.81 6.61-20.48 6.39-20.12 3.66-11.63 2.98-9.53 3.67-11.82 3.23-10.39 3.95-12.72 3.04-9.79 3.78-12.11 3.12-9.88 4.15-13 3.2-10 3.96-12.4 4.22-13.28 7.27-22.87 4.28-13.43 4.23-13.27 3.92-12.31 4.1-12.89 4.03-12.63 3.68-11.58 3.82-11.97 3.52-10.96 2.83-8.67 3.41-10.3 1.88-5.59 3.28-9.57 3.38-9.7 3.02-8.67 2.99-8.64 2.6-7.53 2.1-5.92 2.14-5.78 2.7-6.78 2.97-6.83 3.47-7.28 3.07-5.81 3.46-5.81 3.43-5.12 3.36-4.49 3.03-3.68 4.11-4.59 3.24-3.36 4.07-4 3.38-3.13 4.54-3.89 4.69-3.62 4.82-3.35 4.06-2.55 5.05-2.86 4.26-2.14 5.3-2.35 3.83-1.49 5.54-1.88 4.31-1.25 5.38-1.31 4.44-.87 5.87-.84 5.55-.46 5.54-.1 5.88.28 5.85.67 5.48.97 10.02 2.8 5.44 2.15 5.17 2.57 4.62 2.78 4.92 3.52 5.11 4.36 3.79 3.79 3.69 4.3 3.16 4.26 4.29 7.23.82 1.7 1.86 4.55 1.19 3.71 1.15 4.82.58 3.59.37 4.51.02 3.29-.25 3.88-.99 6.2-1.81 6.42-1.27 3.21-1.55 3.24-1.66 2.93-1.98 2.98-2.19 2.77-2.32 2.44-2 1.75-2.3 1.73-2.28 1.47-2.39 1.31-1.71.79-2.65 1.01-2.57.76-5.55.97-5.35.05-3.31-.39-2.94-.57-3.28-.92-2.68-1.02-2.81-1.36-2.24-1.34-2.48-1.75-1.8-1.42-2.2-1.89-1.84-1.66-2.37-2.16-2.19-1.96-4.18-3.54-2.53-1.93-2.02-1.43-2.47-1.58-2.14-1.23-2.48-1.22-1.58-.67-2.58-.93-4.95-1.29-3.1-.48-3.03-.19-2.67.07-3.1.39-2.81.66-2.9.99-2.85 1.28-2.84 1.62-2.59 1.83-2.41 2.15-.96 1.02-1.93 2.46-1.58 2.61-1.31 2.92-.94 2.93-.64 3.07-.29 2.38-.14 3.5.12 2.97.3 2.83.36 2.2.82 3.56 2 5.85 3.09 6.63 2.11 3.64 2.55 3.79 2.68 3.42 3.13 3.44 3.4 3.25 3.44 2.88 3.86 2.89 3.81 2.54 3.48 2.09 4.38 2.37 2.93 1.45 4.39 1.95 4.56 1.79 5.35 1.82 3.68 1.1 5.05 1.32 4.22.94 5.32.99 4.42.65 5.54.59 4.58.32 5.72.23 6.53.06 5.88-.09 5.23-.2 6.05-.37 6.19-.54 6.4-.73 5.75-.81 6.76-1.13 6.06-1.14 7.12-1.41 6.41-1.27 7.5-1.44 6.73-1.26 7.84-1.47 6.5-1.21 8.14-1.48 7.25-1.3 8.42-1.53 6.39-1.2 9.18-1.76 8.22-1.59 9.44-1.85 7.89-1.53 9.72-1.86 9.32-1.74 17.91-3.12 18.25-2.76 16.15-1.84 5.27-.45 7.53-.5 9.14-.41 7.32-.2 9.46-.08 13.68.21 9.13.36 9 .54 8.36.68 8.88.92 6.3.76 8.44 1.17 6.93 1.07 9.16 1.58 7.64 1.45 8.88 1.79 5.62 1.18 10.25 2.24 6.89 1.52 9.14 2 8.89 1.93 8.49 1.82 7.01 1.5 7.47 1.6 6.01 1.32 6.57 1.47 4.8 1.09 4.82 1.13 4.33 1.02 3.81.92 3.38.83 3.65.9 3.23.85 3.43 1 3.19 1.07 2.77 1.11 2.07.97 2.44 1.37 1.68 1.12 1.98 1.55 1.43 1.29 1.75 1.82 1.27 1.5 1.55 2.13 1.08 1.74 1.25 2.42.77 1.93.74 2.54.36 1.96.22 2.6-.02 2.01-.31 2.64-.43 1.99-.85 2.55-.85 1.94-1.39 2.5-1.26 1.89-1.76 2.28-1.59 1.82-2.18 2.19-2.26 1.99-1.63 1.28-2.81 2.01-3.05 1.93-2.65 1.53-3.49 1.81-4 1.86-4.3 1.8-3.76 1.48-4.81 1.77-3.79 1.3-4.67 1.48-4 1.13-4.75 1.17-3.33.73-4.76.9-2.83.46-4.61.66-5.03.58-4.88.45-3.76.27-5.45.31-4.59.17-5.35.1h-4.42l-5.52-.11-4.56-.17-6.06-.32-5.8-.37-6.63-.48-4.51-.33-6.55-.54-6.78-.64-6.97-.74-6.72-.76-10.79-1.33-6.65-.86-5.88-.74-7.36-.89-6.1-.69-8.11-.86-6.31-.62-8.37-.79-6.98-.61-7.98-.65-6.38-.45-7.68-.45-6.09-.26-7.32-.21-7.11-.13-6.82-.04-5.69.05-6.23.21-5.23.31-6.15.57-3.52.44-5.47.9-4.63.98-5.14 1.34-7.41 2.48-2.7 1.06-3.86 1.63-4.68 2.16-3.78 1.86-4.59 2.43-4.85 2.78-4.53 2.84-4.76 3.25-4.67 3.51-4.55 3.8-7.62 7.37-7.49 8.79-2.86 3.82-2.75 3.93-3.28 4.99-2.38 3.84-3.24 5.59-3.04 5.77-2.63 5.61-2.38 5.77-3.76 11.24-2.72 12.11-.94 6.8-.53 6.47-.2 6.91.17 6.95.47 6.56.81 6.97.9 5.76 1.36 6.94 1.25 5.29 1.94 6.86 1.74 5.18 2.45 6.3 2.82 6.15 3.36 6.38 3.69 6.25 3.74 5.82 3.96 5.81 3.33 4.74 4.21 5.89 3.45 4.83 4.15 5.97 3.41 5.16 3.77 6.23 2.59 4.75 3.01 6.16 1.99 4.69 2.05 5.72 1.44 4.97 1.24 5.59.9 5.83.49 5.37.24 5.59-.01 5.15-.21 5.05-.45 5.24-.46 3.63-.91 5.03-.89 3.76-1.44 4.79-1.29 3.56-1.78 4.24-1.73 3.59-2.17 3.94-2.06 3.34-2.55 3.69-2.22 2.88-2.92 3.4-2.71 2.84-3.47 3.25-3.66 3.04-3.82 2.82-3.03 2-3.84 2.28-3.97 2.07-4.34 1.95-4.5 1.72-4.71 1.54-4.39 1.19-3.65.8-5.35.86-4.55.43-5.66.16L15 2.02l-5.89-.53L3.16.68-2.85-.38l-3.55-.71-5.95-1.19-4.69-.89-5.11-.86-4.25-.6-4.63-.51-2.76-.2-4.24-.12-4.24.15-3.96.47-3.46.72-3.21.97-3.4 1.31-2.88 1.35-2.77 1.52-2.96 1.91-2.51 1.87-2.51 2.18-2.31 2.39-1.59 1.98-2.83 4.1-1.63 2.85-1.43 3.05-1.2 3.21-.97 3.4-.79 3.86-.54 4.08-.24 3.53-.05 3.39.18 4.03.37 3.58.77 4.76.79 3.71 1.3 4.9 1.25 3.77 1.85 4.61 1.78 3.68 2.5 4.42 2.45 3.77 3.08 4.19 3.58 4.31 3.89 4.15 3.95 3.72 4.23 3.5 4.79 3.42 5.06 3.11 4.99 2.62 5.48 2.48 5.68 2.15 4.12 1.32 5.64 1.52 4.73 1.05 6.36 1.13 5.47.73 6.88.66 5.84.37 6.85.23 5.73.08h6.84l6.62-.07 7.84-.14 8.12-.13 8.41-.12 9.25-.17 8.99-.22 8.07-.19 9.46-.17 8.49-.11 10.56-.1 10.83-.06 11.1.03 11.45.11 21.97.33 22.55.41 24.48.41 24.36.35 23.71.43 12.82.33 12.27.34 11.62.31 10.88.25 9.57.23 8.94.25 8.78.28 7.59.25 6.12.19 6.27.17 4.65.1 5.9.09 4.38.03 4.09-.03 6.02-.25 4.14-.41 3.41-.55 2.56-.58 2.97-.92 3.09-1.24 2.87-1.47 2.7-1.68 2.53-1.91 1.83-1.64 2.07-2.24 1.96-2.65 1.74-3.07 1.13-2.59 1.05-3.19.7-2.98.51-3.62.16-3.3-.18-3.86-.47-3.43-1.82-7.53-1.23-4.38-.9-3.64-.73-4.1-.28-2.96.03-4.19.32-2.85.72-3.58.83-2.85 1.22-3.12 1.29-2.61 1.84-3.06 2.03-2.82 4.65-5 3.11-2.67 3.42-2.54 2.82-1.85 3.97-2.23 4.24-1.94 4.49-1.59 4.39-1.13 4.53-.76 4.64-.41 5.05-.08 3.9.2 6.05.75 3.02.59 3.61.91 4.74 1.55 4.64 1.95 4.5 2.36 4.6 2.91 3.65 2.69 3.73 3.15 3.31 3.19 3.36 3.64 2.76 3.33 3.39 4.56 3.14 4.77 2.74 4.67 2.66 5.12 2.37 5.28 1.93 5.13 1.44 4.59 1.32 5.34 1.03 5.79.6 5.56.28 8.14-.23 5.8-.31 3.68-.85 6.34-.94 4.91-1.65 6.55-1.56 5.06-2.14 5.87-2.15 5.09-3.42 7.03-2.79 5.04-2.32 3.82-5.71 8.18-2.87 3.57-3.97 4.5-5.28 5.26-4.59 4.02-6.38 4.9-5.14 3.47-6.6 3.95-5.55 2.97-7.06 3.34-7.74 3.14-7.5 2.55-8.16 2.25-7.85 1.68-8.49 1.35-13.31 1.21-9.01.34-7.07.16-8.35.19-7.98.22-9.99.29-7.88.18-10.63.16-8.41.1-11.36.11-9.68.07-11.42.09-9.56.08-12.11.13-12.48.15-13.63.23-13.19.21-13.54.1-11.24.02-24.04.18-15.57.23-11.2.17-15.18.25-16.43.3-16.73.31-13.99.24-17.27.26-13.3.18-16.61.22-12.61.19-16.98.27-13.96.25-17.36.33-14.25.3-18.81.43-14.54.36-19.18.48-15.94.41-19.54.5-10.42.27-19.81.5-15.28.38-18.94.47-15.5.39-20.41.53-19.35.51-20.72.52-19.63.48-19.76.48-19.89.49-20 .5-17.59.44-20.22.51-16.5.42-21.68.56-15.31.4-20.2.52-20.91.57-30.58.89-19 .61-14 .48-17.61.61-11.98.4-16.32.5-12.77.34-14.7.39-10.82.31-13.99.41-13.84.39-13.69.38-13.42.37-12.62.35-11.57.33-8.17.24-9.85.3-6.84.21-7.63.23-6.02.16-6.44.15-4.31.09-4.9.08-4.59.07-4.01.06-2.7.03-3.37.04-2.49.03-3.37-.02-2.22-.07-3.15-.22-2.59-.34-3.1-.67-2.13-.64-2.73-1.09-2.04-1.05-2.5-1.64-1.56-1.3-1.77-1.81-1.16-1.47-1.18-1.89-.75-1.59-.69-2.09-.35-2.07-.06-2.06.13-1.62.35-2.09.58-2.26 1.51-3.85 3.37-5.28 2.51-2.81 2.81-2.58 3.19-2.48 3.08-2.05 4.1-2.31 4.5-2.15 3.73-1.58 5.26-1.98 5.29-1.79 5.6-1.74 4.74-1.35 6.52-1.64 5.22-1.13 6.71-1.21 6.1-.87 7.7-.78 6.14-.4 8.83-.25h8.18l7.99.14 7.76.2 9.85.25 8.44.17 10.04.11 9.12.06 11.51.03 6.98-.01 11.49-.07 9.58-.12 12.73-.22 9.74-.2 12.56-.31 9.29-.27 10.89-.34 8.86-.33 9.88-.42 6.86-.37 8.13-.56 5.6-.46 6.47-.61 4.29-.45 4.75-.59 3.08-.45 3.75-.72 2.71-.65 3.27-.96 5.5-2.01 6.06-2.85 6.67-3.89 3.25-2.22 3.61-2.73 3.28-2.79 3.13-3.03 2.46-2.66 2.91-3.51 2.46-3.27 2.72-3.97 2.28-3.68 2.5-4.43 1.93-3.77 2.42-5.17 1.77-4.11 2.2-5.62 1.7-4.85 1.87-5.8 1.62-5.39 1.98-6.92 1.59-5.54 2.21-7.58 1.81-6.06 2.38-7.77 2.04-6.58 2.64-8.42 2.44-7.64 3.12-9.6 2.48-7.58 3.53-10.86 2.61-8.09 3.48-10.88 3.78-11.89 3.65-11.55 3.74-11.84 3.61-11.44 2.27-7.22 4.16-13.29 3.3-10.52z" stroke="#000" stroke-width="8" fill="none"/>
</svg>
