<?xml version="1.0" encoding="UTF-8" standalone="no"?>
<svg xmlns="http://www.w3.org/2000/svg" height="23513.39" viewBox="-731.40600 12.50000 15606.99900 23513.38800" width="15607.00" version="1.1">
<path d="m-716.406 658.395 5.447 3.817 4.523 3.195 6.094 4.336 4.785 3.43 6.019 4.343 6.54 4.744 6.664 4.84 5.158 3.749 6.404 4.668 6.853 5.021 6.49 4.775 6.937 5.105 6.164 4.531 5.375 3.95 7.062 5.199 5.446 4.017 6.747 4.977 5.518 4.069 7.26 5.358 7.311 5.408 7.367 5.453 5.672 4.183 7.477 5.5 5.742 4.24 7.087 5.273 7.114 5.33 7.594 5.71 7.183 5.411 13.56 10.244 13.223 10.021 13.846 10.425 13.57 10.082 14.18 10.499 7.608 5.647 8.58 6.386 6.214 4.637 8.14 6.088 6.237 4.676 7.683 5.776 7.689 5.795 8.174 6.177 6.252 4.736 8.173 6.206 7.689 5.855 8.162 6.227 8.16 6.228 8.148 6.222 8.145 6.215 13.864 10.58 7.62 5.832 6.167 4.745 8.023 6.203 6.543 5.077 7.786 6.04 6.706 5.188 12.963 9.968 11.96 9.142 11.448 8.625 5.492 4.037 4.878 3.52 9.018 6.27 10.713 6.518 3.475 1.842 4.85 2.307 3.655 1.51 4.41 1.55 3.465.961 4.114.777 3.445.319 3.733-.01 3.493-.352 3.424-.731 3.086-1.09 2.73-1.386 2.248-1.467 1.986-1.516 1.848-1.615.964-.963 1.474-1.679 1.246-1.648 1.122-1.723.635-1.116 1.323-2.824.998-2.847.73-2.843.371-1.975.323-2.557.151-2.853-.245-5.339-.374-3.028-.508-3.156-1.242-6.056-1.65-6.531-1.15-3.796-1.552-4.416-1.3-3.274-1.796-4.118-1.992-4.214-2.159-4.317-1.855-3.592-2.552-4.829-2.056-3.816-2.82-5.147-2.415-4.371-2.836-5.17-2.337-4.348-2.865-5.524-2.274-4.624-2.996-6.573-2.017-4.826-2.305-6.002-1.73-4.918-2.067-6.476-1.405-4.979-1.404-5.764-1.296-6.551-.97-6.566-.503-5.036-.315-6.208.006-5.048.413-6.977.51-4.678 1.077-7.064.897-4.735 1.38-6.329 1.285-5.116 1.83-6.207 1.863-5.346 1.338-3.404 2.827-6.342 3.016-5.84 5.836-9.528 4.106-5.801 3.581-4.69 4.253-5.298 4.686-5.553 9.154-9.632 9.69-8.5 5.14-3.92 6.035-4.159 6.253-3.876 6.06-3.43 6.582-3.524 6.298-3.319 6.405-3.37 6.926-3.649 5.379-2.836 7.14-3.77 5.534-2.93 7.305-3.93 5.17-2.86 6.82-3.92 5.811-3.514 6.39-4.114 6.055-4.245 5.677-4.403 4.661-3.972 4.962-4.66 4.03-4.177 4.29-4.88 3.283-4.042 4.103-5.376 3.037-4.151 3.631-5.162 2.876-4.24 3.66-5.628 2.7-4.385 3.387-5.853 2.498-4.566 3.009-5.697 3.215-6.085 3.142-5.692 2.673-4.54 3.688-5.739 3.908-5.436 3.869-4.84 2.517-2.89 3.395-3.606 3.261-3.179 4.244-3.83 3.792-3.25 5.07-4.229 3.948-3.24 4.973-3.944 3.828-2.894 5.561-4.002 4.32-3.025 5.313-3.748 5.162-3.812 5.186-4.148 3.728-3.256 4.292-4.104 3.238-3.417 3.908-4.587 2.76-3.607 3.188-4.545 2.663-4.059 2.96-4.704 2.334-3.875 2.873-5.184 2.167-4.38 2.354-5.456 1.565-4.262 1.763-5.672 1.095-4.052 1.454-5.812 1.145-4.483 1.528-5.54 3.147-10.131 3.742-10.599 4.318-10.094 5.456-9.969 6.065-8.569 4.138-4.758 4.194-4.175 8.44-7.205 8.669-6.32 9.43-5.799 10.252-4.822 10.292-3.188 5.924-1.207 5.976-.874 6.005-.524 5.66-.14 5.644.223 5.613.57 4.544.686 5.93 1.163 4.517 1.098 5.871 1.702 4.45 1.5 5.762 2.214 4.378 1.862 5.371 2.454 5.718 2.746 5.408 2.68 5.793 2.914 10.42 5.113 10.66 4.634 5.693 2.031 5.648 1.618 10.064 1.756 9.705.376 5.16-.236 5.326-.541 8.511-1.48 9.156-2.412 8.688-3.112 6.517-2.991 2.769-1.503 3.504-2.16 4.415-3.154 3.276-2.627 3.96-3.44 3.199-2.95 4.185-4.043 3.196-3.226 4.376-4.679 2.857-3.267 3.915-4.82 2.873-3.829 3.625-5.15 2.717-3.994 3.356-4.831 3.667-4.838 3.614-4.162 3.807-3.713 4.253-3.404 4.188-2.722 4.347-2.315 3.355-1.507 4.868-1.817 4.682-1.34 4.748-.938 4.764-.506 4.749-.09 3.834.22 4.971.662 3.762.79 4.816 1.432 3.555 1.413 4.213 2.097 4.271 2.614 3.854 2.74 3.75 2.923 3.943 3.26 3.996 3.309 3.88 3.078 4.002 2.966 3.322 2.25 4.388 2.632 3.39 1.755 4.471 1.944 3.485 1.263 4.375 1.343 3.906 1.012 4.863 1.046 3.812.665 5.122.7 4.033.4 5.419.303 4.238.025 5.279-.25 4.598-.514 5.207-.916 4.557-1.015 4.917-1.213 3.974-.99 5.705-1.377 4.414-1.037 5.506-1.288 4.897-1.173 5.692-1.422 5.084-1.327 6.295-1.725 4.897-1.413 6.137-1.86 5.072-1.602 6.754-2.206 5.255-1.768 6.567-2.276 5.834-2.096 7.174-2.69 6.394-2.533 6.837-2.896 5.495-2.514 6.553-3.312 5.484-3.102 6.396-3.997 4.736-3.2 5.345-3.792 5.954-4.375 5.497-4.198 5.353-4.318 4.556-3.894 3.201-2.864 3.177-2.944 4.114-3.956 4.11-4.105 5.055-5.262 3.78-4.094 5.02-5.657 5.291-6.255 4.951-6.112 5.262-6.71 4.99-6.52 4.094-5.457 5.398-7.327 4.518-6.179 5.303-7.172 5.836-7.706 5.697-7.314 2.548-3.225 6.287-7.896 6.416-8.022 6.155-7.674 5.096-6.34 6.4-7.94 5.308-6.575 7.078-8.79 5.933-7.39 7.306-9.096 5.59-6.942 6.567-8.133 4.904-6.052 5.505-6.772 4.984-6.11 4.947-6.036 4.543-5.537 3.7-4.532 3.516-4.357 2.768-3.48 3.044-3.888 2.556-3.33 2.551-3.404 2.5-3.464 2.07-3.028 1.532-2.381 1.8-3.017 1.22-2.238 1.373-2.842 1.123-2.727.781-2.317.551-2.106.427-2.37.274-3.003.057-1.394.01-2.748-.16-2.896-.377-2.76-.741-2.993-.755-2.04-1.26-2.494-1.158-1.784-1.768-2.22-1.668-1.722-2.12-1.802-1.714-1.205-2.545-1.45-2.439-1.05-2.605-.799-2.649-.52-2.739-.332-2.736-.233-3.11-.167-3.336-.044-2.915.078-3.277.227-4.114.495-3.56.62-8.42 2.184-5.747 1.899-3.845 1.343-4.59 1.64-4.205 1.536-5.358 1.996-8.041 3.026-6.027 2.289-6.285 2.394-10.513 3.948-9.046 3.329-7.264 2.662-7.491 2.745-7.257 2.64-7.443 2.673-14.44 5.088-8.447 2.92-8.11 2.78-6.179 2.117-7.83 2.692-9.009 3.096-8.619 2.937-9.305 3.13L756.2 27.5l-7.354 2.387-9.676 3.077-7.52 2.348-9.938 3.062-7.683 2.342-10.184 3.07-7.907 2.36-10.495 3.101-8.142 2.38-9.553 2.767-10.903 3.122-11.089 3.14-9.233 2.6-10.648 3.016-10.742 3.075-11.51 3.317-11.616 3.34-20.759 5.797-21.815 5.715-20.725 5.173-11.536 2.907-12.328 3.156-20.517 5.148-21.554 5.118-22.577 5.214-23.604 5.373-23.905 5.311-23.415 4.986-13.39 2.723-12.683 2.472-10.351 1.961-12.792 2.38-11.234 2.071-13.681 2.518-10.497 1.908-12.969 2.307-10.569 1.837-13.05 2.226-13.133 2.203-14.962 2.468-10.924 1.775-14.384 2.315-11.073 1.773-13.684 2.184-10.3 1.633-14.587 2.27-11.966 1.804-13.587 1.99-10.945 1.567-13.348 1.867-10.743 1.462-13.893 1.823-17.655 2.187-12.436 1.478-4.593.543-15.85 1.905-17.03 2.129-8.738 1.102-9.936 1.24-11.624 1.421-8.512 1.022-9.933 1.18-7.603.902-9.318 1.127-6.705.832-8.261 1.05-5.907.762-7.042.915-4.808.627-5.831.755-4.373.56-3.65.46-6.806.865-4.795.633-3.985.566-4.394.715-3.43.68-4.28 1.06-3.318.997-3.52 1.281-2.635 1.16-2.9 1.53-1.94 1.214-2.178 1.578-1.532 1.235-1.877 1.678-1.436 1.452-1.537 1.754-1.168 1.505-1.32 1.945-1.231 2.178-1.71 4.11-.635 2.273-.421 2.257-.245 2.4-.06 2.276.047 1.868.165 2.487.239 2.108.41 2.469.47 2.028.757 2.486.763 2.006 1.19 2.606 1.138 2.18 1.469 2.596 1.438 2.38 1.458 2.31 4.01 5.792 4.45 5.359 5.705 5.673 3.38 3.041 3.814 3.37 3.804 3.368 4.32 3.83 4.61 4.057 4.58 3.972 3.87 3.303 4.905 4.143 4.049 3.428 4.966 4.335 3.94 3.656 4.672 4.68 4.478 4.87 4.571 5.349 4.115 5.198 3.876 5.357 2.924 4.448 3.234 5.517 2.585 5.142 2.248 5.473 1.23 3.8.997 4.018.646 3.592.446 4.193.084 3.07-.2 3.604-.443 2.978-.79 3.182-1.031 2.967-1.299 3.01-1.392 2.715-1.572 2.555-1.302 1.796-2.034 2.4-1.695 1.73-2.385 2.11-1.794 1.376-2.864 1.88-2.396 1.318-2.916 1.341-2.508.953-3.254 1.014-2.989.75-3.57.679-3.719.44-4.092.158-4.46-.218-3.791-.485-4.353-.871-3.093-.813-4.39-1.415-3.342-1.29-4.318-1.977-3.244-1.733-4.142-2.556-3.072-2.176-3.862-3.143-2.818-2.616-3.506-3.69-2.352-2.777-2.997-3.911-2.537-3.618-2.836-4.338-2.49-3.964-2.888-4.694-3.099-5.175-2.925-5.05-3.13-5.593-2.98-5.452-3.243-5.97-3.15-5.702-2.627-4.557-3.329-5.374-3.034-4.462-3.624-4.785-3.07-3.636-4.16-4.402-3.22-3.05-3.897-3.344-3.368-2.625-3.835-2.714-3.767-2.364-3.756-2.019-3.463-1.512-2.526-.868-3.219-.83-2.923-.5-2.954-.287-2.781-.106-2.648.039-1.993.115-2.583.271-2.413.406-2.377.585-2.445.841-2.204 1-2.094 1.188-2.114 1.457-1.663 1.35-1.91 1.821-1.762 2.006-1.493 2.052-1.317 2.206-.938 1.91-.984 2.488-.65 2.113-.606 2.701-.384 2.804-.134 2.866.085 2.333.356 3.052.64 3.292.78 3.078.986 3.223 1.293 3.578 1.677 3.926 1.772 3.58 2.249 4.135 1.752 3.07 2.434 4.113 2.47 3.946 2.695 3.98 2.182 2.992 3.322 4.245 2.526 3.025 3.849 4.36 3.868 4.192 4.054 4.315 4.446 4.736 3.716 4 3.442 3.77 3.895 4.4 3.278 3.87 4.108 5.147 3.897 5.254 3.487 5.047 2.507 3.872 3.157 5.244 3.134 5.735 2.707 5.54 2.597 6.034 2.281 6.182 1.838 5.942 1.597 6.434 1.154 6.144 1.292 11.702.232 11.434-.796 11.457-1.92 11.762-1.38 5.815-1.545 5.367-2.062 6.054-1.905 4.843-2.628 5.855-2.555 5.012-3.419 5.935-2.833 4.412-3.742 5.275-3.498 4.463-4.235 4.915-3.616 3.848-4.66 4.533-3.961 3.502-5.09 4.07-4.635 3.327-5.492 3.54-4.96 2.863-5.824 3.022-6.335 2.942-6.07 2.543-4.975 1.907-6.11 2.128-5.314 1.629-6.42 1.655-5.261 1.087-6.008.935-4.883.51-6.373.327-5.237.001-5.973-.25-4.848-.377-6.348-.687-4.855-.659-5.97-.981-4.844-.95-6.314-1.474-4.431-1.22-5.495-1.762-5.073-1.888-5.719-2.441-4.927-2.382-5.55-2.996-4.462-2.644-5.442-3.488-5.402-3.719-5.343-3.95-5.239-4.215-5.417-4.778-4.024-3.857-5.086-5.305-3.758-4.23-4.504-5.379-3.844-4.833-4.268-5.644-3.609-5.038-3.952-5.863-2.816-4.467-3.76-6.432-3.321-6.143-3.372-6.598-3.137-6.224-5.942-11.153-6.909-11.582-4.054-6.177-3.74-5.346-3.364-4.553-4.574-5.822-3.63-4.343-4.632-5.199-4.812-4.994-5.298-5.028-4.164-3.622-5.25-4.134-4.354-3.017-5.473-3.186-4.522-2.125-5.969-2.178-5.287-1.506-5.998-1.441-4.228-.92-5.636-1.054-4.58-.633-5.622-.427-9.707.391-10.19 1.729-9.905 2.44-5.522 1.599-6.23 2.075-5.531 2.108-5.51 2.34-5.842 2.72-5.535 2.739-5.974 3.063-6.124 3.207-5.95 3.144-6.156 3.235-5.565 2.86-6.583 3.264-5.958 2.86-7.022 3.317-5.862 2.748-7.873 3.658-6.177 2.834-8.255 3.75-6.874 3.103-8.274 3.717-7.4 3.317-7.151 3.204-6.618 2.97-6.342 2.865-5.343 2.444-5.054 2.356-4.233 2.025-4.036 2.008-3.783 1.98-3.32 1.872-6.318 4.13-3.308 2.639-2.563 2.43-2.324 2.624-2.014 2.672-1.972 3.063-1.782 3.292-.94 2.03-1.387 3.577-1.091 3.717-.699 3.578-.338 3.361v3.482l.382 3.482.7 3.313.936 3.218.643 1.877.712 1.872 2.622 5.602 3.31 5.167 4.182 5.004 4.928 4.792 5.497 4.573 6.606 5.095 6.776 5.108 3.975 2.962 4.151 3.079 8.392 6.134 8.875 6.407 10.396 7.47 11.325 8.104 12.267 8.734z" stroke="#000" stroke-width="8" fill="none"/>
</svg>
