<?xml version="1.0" encoding="UTF-8" standalone="no"?>
<svg xmlns="http://www.w3.org/2000/svg" height="49228.66" viewBox="-196.69600 -254.32200 11633.02400 49228.65700" width="11633.02" version="1.1">
<path d="m-181.696-239.322 6.295 2.76 7.097 3.272 6.636 3.177 6.997 3.456 6.538 3.33 5.294 2.757 6.922 3.642 5.3 2.803 6.955 3.734 5.762 3.165 7.045 3.973 7.104 4.127 6.737 4.014 5.518 3.327 7.288 4.417 6.046 3.674 7.412 4.495 7.035 4.234 7.534 4.504 7.144 4.257 13.08 7.766 13.716 8.105 13.883 8.164 13.607 7.963 12.323 7.178 8.129 4.719 6.736 3.9 7.748 4.475 7.794 4.492 7.845 4.524 6.874 3.98 8.38 4.881 7.926 4.642 14.953 8.755 14.92 8.654 8.019 4.644 7.457 4.333 5.617 3.28 5.927 3.474 5.407 3.184 5.202 3.09 3.612 2.181 4.046 2.494 3.023 1.905 3.554 2.288 3.1 2.043 3.76 2.559 3.075 2.197 3.433 2.638 2.887 2.441 3.14 2.958 2.563 2.76 2.622 3.375 1.95 3.149 1.78 3.783 1.09 3.182.927 4 .496 4.047.099 4.063-.179 3.294-.557 4.003-.84 3.416-1.57 4.21-1.831 3.528-2.37 3.53-2.765 3.345-2.89 3.043-3.323 3.2-3.557 3.205-3.305 2.872-2.96 2.541-3.94 3.44-2.995 2.72-3.6 3.437-3.046 3.081-3.31 3.636-2.688 3.319-2.916 4.233-2.084 3.648-2.083 4.314-1.642 3.867-1.85 4.794-1.19 3.45-1.438 4.982-.91 4.172-.685 4.789-.259 4.155.036 4.975.188 4.613.137 4.875-.051 4.891-.206 4.635-.38 4.672-.644 5-.73 4.131-1.14 5.03-1.449 5.036-1.768 5.02-1.955 4.688-1.914 4.077-2.553 4.914-2.445 4.297-2.981 4.808-3.24 4.674-3.532 4.462-3.608 3.947-4.112 3.904-4.083 3.425-7.745 5.757-8.093 5.255-4.646 2.635-4.795 2.402-9.393 3.823-10.184 3.17-4.372 1.192-5.135 1.304-10.553 2.243-10.958 1.601-11.736.989-11.407.246-12.265-.424-12.73-1.138-13.208-1.9-13.644-2.721-13.994-3.543-12.788-3.907-7.645-2.653-6.238-2.352-8.18-3.345-6.267-2.764-7.7-3.657-6.72-3.433-7.642-4.17-8.07-4.69-7.523-4.61-7.478-4.724-7.858-5.003-7.355-4.663-5.935-3.753-7.246-4.6-6.245-3.983-7.436-4.738-5.492-3.479-6.498-4.082-10.24-6.342-11.815-7.264-6.384-3.93-6.822-4.212-4.035-2.498-5.267-3.262-6.835-4.224-6.29-3.865-5.733-3.501-7.775-4.707-3.547-2.112-4.418-2.562-5.096-2.827-4.236-2.23-5.017-2.514-3.471-1.663-4.58-2.09-4.004-1.71-5.165-2-3.748-1.268-4.646-1.36-3.809-.939-4.132-.842-4.747-.79-2.98-.415-7.177-.778-11.702-.513-3.886.104-5.07.332-3.875.373-5.078.626-4.785.773-4.779.987-3.892.966-4.822 1.389-4.25 1.397-4.891 1.814-3.074 1.256-4.952 2.21-7.162 3.56-5.033 2.68-5.137 2.819-5.575 3.049-5.68 2.98-5.41 2.653-5.78 2.583-4.427 1.756-5.435 1.855-4.397 1.23-5.707 1.207-4.32.62-5.925.52-3.94.182-5.58.06-4.268-.117-5.901-.43-4.572-.577-5.18-.948-5.42-1.354-5.03-1.575-4.036-1.47-5.203-2.182-3.913-1.873-4.724-2.546-3.757-2.257-4.829-3.169-3.365-2.348-4.748-3.441-4.746-3.534-4.778-3.59-3.7-2.743-4.622-3.344-4.704-3.297-5.083-3.418-4.872-3.07-4.339-2.484-5.377-2.71-5.179-2.205-5.609-1.96-4.357-1.26-5.43-1.313-4.456-.893-5.523-.892-4.867-.596-5.948-.455-4.923-.116-5.635.174-5.972.554-5.96.908-4.54.915-5.901 1.472-5.844 1.761-5.414 1.89-4.32 1.664-5.192 2.172-4.09 1.864-5.099 2.588-3.931 2.278-4.18 2.763-3.38 2.542-3.75 3.162-3.495 3.257-2.95 2.98-2.674 2.876-2.958 3.387-2.28 2.835-2.621 3.595-2.531 3.94-2.126 3.801-2.128 4.365-1.479 3.453-1.5 3.994-1.14 3.508-1.082 3.983-.745 3.446-.63 3.892-.37 3.363-.212 3.788.16 6.022.404 3.638.632 3.575 1.697 6.274 2.493 6.122 3.265 5.594 3.868 4.777 4.676 4.35 5.239 3.988 6.19 3.832 3.83 1.924 3.8 1.576 7.444 2.318 8.28 1.678 9.484 1.16 10.393.685 10.837.213 6.663-.1 6.878-.199 6.668-.152 7.282-.041 7.471.154 7.618.36 5.914.409 7.837.715 6.533.753 7.56 1.04 6.695 1.05 8.232 1.419 6.371 1.146 7.447 1.332 9.066 1.565 7.67 1.255 6.719 1.037 8.898 1.292 9.017 1.233 9.13 1.163 9.25 1.058 8.817.873 8.927.746 7.333.498 9.16.467 15.876.466 17.766.13 19.76-.304 19.087-.645 20.272-.806 10.889-.454 12.159-.512 8.71-.355 10.563-.405 10.878-.381 9.854-.296 10.012-.207 9.58-.078 9.343.054 8.759.162 7.11.204 9.342.36 5.51.27 5.517.324 7.734.557 8.845.806 9.4 1.061 8.85 1.197 9.419 1.493 9.481 1.737 8.98 1.851 8.495 1.92 7.989 1.945 9.777 2.553 8.108 2.237 9.932 2.843 9.44 2.794 10.1 3.112 10.152 3.257 16.242 5.385 9.722 3.207 9.793 3.164 17.253 5.36 9.87 2.897 10.445 2.923 8.578 2.302 10.383 2.67 9.139 2.22 10.333 2.325 10.334 2.082 10.34 1.8 7.925 1.19 10.386 1.33 8.59.935 9.937.91 8.175.604 10.81.574 10.945.306 11.077.04 17.175-.53 4.671-.272 10.759-.806 11.605-1.103 10.394-1.172 9.122-1.17 11.36-1.648 9.325-1.512 12.309-2.21 10.21-2.013 13.126-2.866 8.688-2.09 11.468-3.012 9.226-2.638 11.884-3.671 8.962-2.957 10.289-3.555 9.568-3.392 10.957-3.905 20.722-7.456 20.404-7.563 20.864-7.89 11.77-4.454 12.646-4.773 12.114-4.559 13.048-4.898 12.432-4.66 12.374-4.639 10.538-3.955 11.438-4.301 8.732-3.29 10.651-4.04 7.596-2.933 9.393-3.767 7.563-3.182 9.09-3.97 9.012-4.046 8.437-3.869 8.923-4.201 21.036-10.458 8.995-4.7 8.992-4.813 8.37-4.587 8.18-4.6 5.94-3.414 7.883-4.6 5.459-3.23 6.06-3.637 4.713-2.867 4.956-3.063 3.483-2.192 3.712-2.389 2.725-1.789 3.307-2.226 2.433-1.705 3.353-2.497 2.67-2.15 2.97-2.571 2.886-2.683 2.754-2.813 2.086-2.398 2.417-3.319 1.556-2.684 1.714-3.92 1.047-3.425 1.052-7.134-.526-7.157-1.93-6.72-2.919-5.907-2.239-3.282-2.772-3.25-2.95-2.86-3.211-2.767-3.652-2.971-3.18-2.527-4.024-3.226-4.153-3.442-5.617-4.958-3.763-3.637-3.772-4.081-5.37-7.308-3.849-8.293L602.89-25l.344-7.996.958-4.676 1.564-4.861 4.027-8.163 2.772-4.05 3.39-3.913 3.829-3.4 3.939-2.635 3.668-1.833 4.412-1.59 3.445-.904 4.753-.967 4-.674 5.406-.777 4.923-.584 5.333-.5 4.352-.305 5.338-.273 8.574-.527 5.181-.614 5.399-.966 4.948-1.26 5.098-1.722 4.96-2.084 4.572-2.234 4.777-2.618 4.687-2.87 4.564-3.155 3.855-3.047 3.148-2.83 3.481-3.59 2.341-2.785 2.27-3.095 1.428-2.15 1.371-2.192 1.31-2.178 1.22-2.117 1.05-1.93 1.204-2.435 1.046-2.48.83-2.359.682-2.522.438-2.393.244-2.405.056-1.953-.106-2.402-.28-2.085-.568-2.349-.676-1.868-1.097-2.245-1.084-1.76-1.527-2.077-1.347-1.64-1.746-2.016-1.58-1.8-1.953-2.287-1.49-1.836-1.953-2.685-1.271-2.06-1.24-2.52-.864-2.318-.774-3-.411-2.76-.142-3.481.255-3.372.643-3.432 1.001-3.479 1.293-3.516 1.246-2.89 1.778-3.584 1.628-2.933 2.298-3.888 1.792-3.014 2.073-3.746 1.375-2.832 1.607-4.055.938-3.351.603-3.828.124-2.83-.266-3.902-.513-2.87-.961-3.365-1.105-2.767-1.451-2.764-3.696-4.795-4.415-3.837-5.744-3.364-3.394-1.392-3.432-1.08-3.689-.887-3.955-.737-3.42-.52-4.469-.552-3.544-.353-5.299-.407-5.307-.278-5.646-.183-4.464-.087-6.65-.072-5.353-.028-6.882-.017-7.66-.046-7.99-.126-6.8-.174-8.5-.253-6.688-.195-8.984-.238-7.592-.197-9.459-.271-7.985-.25-9.291-.287-10.032-.278-9.648-.24-7.353-.173-10.588-.248-8.23-.2-10.94-.29-9.155-.257-10.59-.297-9.388-.254-8.783-.227-4.089-.102-10.993-.268-11.123-.258-11.249-.248-12.094-.25-12.23-.236-12.373-.24-11.782-.25-12.637-.297-12.027-.313-9.858-.277-12.243-.364-7.706-.239-12.437-.398-10.178-.332-12.64-.407-12.749-.394-13.668-.4-10.539-.293-13.887-.372-10.7-.288-14.104-.383-10.87-.295-14.32-.406-11.026-.352-14.527-.527-11.17-.427-14.74-.554-14.811-.54-14.95-.56-15.926-.634-10.694-.43-15.233-.592-14.44-.537-15.444-.562-11.87-.428-14.686-.528-12.007-.431-15.767-.564-15.878-.565-15.957-.568-12.265-.441-16.105-.592-16.037-.605-15.015-.58-12.111-.478-14.859-.599-12.992-.534-15.965-.67-13.293-.568-14.388-.625-13.563-.6-16.633-.748-12.782-.584-15.72-.732-16.596-.787-16.448-.796-13.337-.653-14.655-.723-11.252-.558-13.769-.687-9.902-.497-12.296-.61-9.809-.464-10.432-.462-11.719-.483-10.87-.416-10.671-.376-19.081-.665-8.236-.333-9.28-.427-8.286-.408-8.646-.394-8.526-.33-7.926-.27-8.32-.26-7.622-.238-5.82-.21-6.555-.285-4.952-.252-6.254-.34-4.344-.236-5.693-.3-4.49-.218-5.627-.236-4.082-.144-4.889-.138-3.379-.063-3.965-.012-2.11.033-3.16.128-2.302.173-2.976.363-4.901 1.077-4.69 1.847-3.888 2.396-3.551 3.176-2.722 3.684-1.109 2.117-1.031 2.655-1.021 4.92.116 5.897 1.58 6.068 3.18 6.75 4.16 6.584 5.641 6.29 3.554 2.997 4.087 3.002 4.054 2.794 4.245 2.854 3.618 2.39 4.927 3.172 3.953 2.43 5.325 3.012 4.184 2.11 5.391 2.4 4.58 1.789 6.209 2.094 5.302 1.516 6.62 1.62 5.562 1.17 6.06 1.089 5.304.77 6.585.615 5.783.177 6.612-.234 7.007-.737 9.101-1.462 5.447-1.013 7.594-1.581 7.216-1.839 12.637-4.372 6.671-2.873 6.721-2.991 12.584-5.106 13.07-4.691 13.886-4.753 14.347-4.412 14.792-3.87 15.73-3.162 15.636-1.992 15.967-.86 15.685.279 12.01.932 9.304 1.156 9.319 1.568 8.193 1.729 7.084 1.763 8.679 2.504 5.394 1.746 8.585 3.068 9.052 3.614z" stroke="#000" stroke-width="8" fill="none"/>
</svg>
