<?xml version="1.0" encoding="UTF-8" standalone="no"?>
<svg xmlns="http://www.w3.org/2000/svg" height="1212.37" viewBox="-1011.09000 -605.11000 1983.41000 1212.37000" width="1983.41" version="1.1">
<path d="M 874.56 -374.63 L 870.34 -378.85 L 866.04 -383.03 L 861.69 -387.23 L 857.29 -391.48 L 852.82 -395.79 L 848.29 -400.14 L 843.66 -404.52 L 838.92 -408.91 L 834.08 -413.31 L 829.15 -417.73 L 824.45 -421.88 L 819.37 -426.33 L 814.22 -430.82 L 809.02 -435.36 L 803.76 -439.95 L 798.43 -444.62 L 793.06 -449.33 L 787.65 -454.07 L 782.21 -458.85 L 776.74 -463.67 L 771.25 -468.51 L 765.73 -473.4 L 760.19 -478.31 L 754.65 -483.24 L 749.08 -488.2 L 743.52 -493.15 L 737.97 -498.13 L 732.46 -503.15 L 726.99 -508.18 L 721.67 -513.06 L 716.73 -517.59 L 712.21 -521.71 L 708.09 -525.43 L 704.33 -528.82 L 700.7 -532.07 L 697.1 -535.24 L 693.51 -538.3 L 689.93 -541.24 L 686.32 -544.05 L 682.68 -546.73 L 678.98 -549.26 L 675.23 -551.64 L 671.42 -553.86 L 667.61 -555.88 L 663.98 -557.6 L 660.44 -559.05 L 656.91 -560.27 L 653.41 -561.25 L 649.94 -561.97 L 646.51 -562.44 L 643.14 -562.67 L 639.8 -562.66 L 636.44 -562.42 L 633.05 -561.94 L 629.65 -561.22 L 626.26 -560.24 L 622.91 -559.01 L 619.59 -557.55 L 616.31 -555.85 L 613.12 -553.91 L 610.03 -551.76 L 607.08 -549.4 L 604.3 -546.84 L 601.74 -544.11 L 599.42 -541.22 L 597.32 -538.16 L 595.45 -534.95 L 593.83 -531.59 L 592.46 -528.1 L 591.34 -524.49 L 590.48 -520.79 L 589.87 -517.01 L 589.48 -513.17 L 589.32 -509.26 L 589.36 -505.3 L 589.62 -501.3 L 590.11 -497.28 L 590.85 -493.25 L 591.87 -489.26 L 594 -483.31 L 595.72 -479.54 L 597.67 -475.88 L 599.82 -472.29 L 602.15 -468.76 L 604.65 -465.22 L 607.3 -461.64 L 610.07 -457.98 L 612.97 -454.25 L 616.01 -450.45 L 619.22 -446.59 L 622.59 -442.69 L 626.09 -438.78 L 629.63 -434.97 L 633.14 -431.32 L 636.6 -427.81 L 639.96 -424.37 L 643.22 -420.91 L 646.37 -417.4 L 649.4 -413.79 L 652.29 -410.06 L 655.02 -406.22 L 657.58 -402.25 L 659.96 -398.16 L 662.16 -393.97 L 664.17 -389.66 L 665.98 -385.23 L 667.58 -380.69 L 668.93 -376.05 L 670.06 -371.32 L 670.96 -366.51 L 671.63 -361.63 L 672.07 -356.7 L 672.29 -351.71 L 672.27 -346.67 L 672.02 -341.59 L 671.52 -336.47 L 670.77 -331.33 L 669.75 -326.16 L 668.45 -320.97 L 666.88 -315.77 L 665.01 -310.59 L 662.86 -305.45 L 660.42 -300.37 L 657.7 -295.38 L 654.7 -290.53 L 651.43 -285.89 L 647.95 -281.52 L 644.3 -277.48 L 640.52 -273.75 L 636.63 -270.26 L 632.63 -266.95 L 628.54 -263.75 L 624.35 -260.67 L 620.03 -257.72 L 615.58 -254.94 L 611 -252.34 L 606.28 -249.94 L 601.42 -247.75 L 596.43 -245.81 L 591.32 -244.15 L 586.1 -242.77 L 580.79 -241.69 L 575.39 -240.85 L 569.92 -240.19 L 565.49 -239.73 L 560.24 -239.21 L 554.53 -238.67 L 548.72 -238.17 L 542.79 -237.73 L 536.77 -237.36 L 530.66 -237.06 L 524.46 -236.91 L 518.2 -236.85 L 511.86 -236.82 L 505.44 -236.8 L 498.95 -236.75 L 492.39 -236.69 L 485.74 -236.64 L 479.03 -236.62 L 472.24 -236.63 L 465.38 -236.67 L 458.45 -236.71 L 451.4 -236.75 L 444.25 -236.78 L 436.98 -236.8 L 429.62 -236.81 L 422.15 -236.81 L 414.59 -236.78 L 406.94 -236.71 L 399.22 -236.6 L 391.46 -236.46 L 383.65 -236.29 L 375.8 -236.1 L 367.9 -235.89 L 359.94 -235.68 L 351.94 -235.45 L 343.9 -235.21 L 335.81 -234.97 L 327.67 -234.75 L 319.5 -234.53 L 311.27 -234.32 L 302.99 -234.12 L 294.66 -233.93 L 286.29 -233.75 L 277.87 -233.58 L 269.38 -233.4 L 260.88 -233.21 L 252.33 -233.01 L 243.74 -232.78 L 235.11 -232.53 L 226.44 -232.26 L 217.74 -231.97 L 208.99 -231.66 L 200.22 -231.33 L 191.41 -230.99 L 182.57 -230.65 L 173.71 -230.33 L 164.82 -230.03 L 155.89 -229.75 L 146.94 -229.51 L 137.96 -229.32 L 128.96 -229.16 L 119.92 -229.05 L 110.85 -228.96 L 101.77 -228.9 L 92.64 -228.84 L 83.5 -228.77 L 74.33 -228.66 L 65.13 -228.52 L 55.9 -228.35 L 46.65 -228.18 L 37.38 -228.01 L 29.92 -227.89 L 21.23 -227.76 L 11.9 -227.59 L 2.55 -227.36 L -6.83 -227.04 L -16.22 -226.66 L -25.62 -226.25 L -35.04 -225.83 L -44.47 -225.43 L -53.91 -225.06 L -63.37 -224.72 L -72.84 -224.44 L -82.31 -224.2 L -91.8 -223.97 L -101.27 -223.74 L -110.69 -223.49 L -120 -223.24 L -129.22 -223.01 L -138.31 -222.79 L -147.17 -222.59 L -155.68 -222.41 L -163.8 -222.26 L -171.53 -222.14 L -178.86 -222.05 L -185.8 -221.98 L -192.38 -221.93 L -198.56 -221.9 L -204.4 -221.89 L -209.93 -221.9 L -215.22 -221.94 L -220.26 -222.01 L -225.08 -222.15 L -229.65 -222.4 L -234.02 -222.77 L -238.08 -223.27 L -241.69 -223.87 L -244.92 -224.55 L -247.87 -225.33 L -250.61 -226.2 L -253.12 -227.15 L -255.5 -228.23 L -257.78 -229.43 L -259.96 -230.76 L -262.05 -232.21 L -264.05 -233.78 L -265.96 -235.49 L -267.8 -237.33 L -269.58 -239.34 L -271.29 -241.52 L -272.92 -243.88 L -274.46 -246.44 L -275.88 -249.18 L -277.16 -252.09 L -278.29 -255.16 L -279.25 -258.4 L -280.03 -261.78 L -280.63 -265.29 L -281.06 -268.9 L -281.31 -272.6 L -281.42 -276.38 L -281.42 -280.23 L -281.31 -284.16 L -281.09 -288.14 L -280.8 -292.2 L -280.51 -296.31 L -280.25 -300.48 L -280 -304.75 L -279.74 -309.13 L -279.48 -313.36 L -279.17 -318.1 L -278.84 -323 L -278.47 -328.09 L -278.07 -333.38 L -277.63 -338.85 L -277.16 -344.5 L -276.66 -350.3 L -276.16 -356.26 L -275.69 -362.36 L -275.29 -368.59 L -274.98 -374.94 L -274.78 -381.37 L -274.71 -387.86 L -274.76 -394.37 L -274.98 -400.85 L -275.4 -407.28 L -276.02 -413.61 L -276.84 -419.82 L -277.86 -425.88 L -279.1 -431.82 L -280.51 -437.6 L -282.09 -443.27 L -283.83 -448.83 L -285.74 -454.29 L -287.81 -459.66 L -290.01 -464.95 L -292.33 -470.19 L -294.76 -475.4 L -297.31 -480.6 L -299.97 -485.79 L -302.75 -490.97 L -305.66 -496.14 L -308.7 -501.25 L -311.88 -506.3 L -315.24 -511.25 L -318.8 -516.1 L -322.55 -520.84 L -326.45 -525.49 L -330.52 -530.04 L -334.78 -534.44 L -339.24 -538.71 L -343.87 -542.83 L -348.67 -546.82 L -353.63 -550.69 L -358.76 -554.43 L -364.04 -558.04 L -369.48 -561.55 L -375.04 -564.95 L -380.71 -568.26 L -386.42 -571.44 L -392.11 -574.42 L -397.57 -577.09 L -402.69 -579.4 L -407.47 -581.41 L -411.91 -583.13 L -416.03 -584.62 L -420 -585.92 L -423.93 -587.09 L -427.82 -588.11 L -431.67 -588.94 L -435.48 -589.57 L -439.27 -589.97 L -443.01 -590.11 L -446.68 -589.97 L -450.01 -589.57 L -456.16 -588.1 L -458.73 -587.14 L -461.76 -585.69 L -464.61 -583.97 L -467.32 -582.02 L -469.89 -579.87 L -472.32 -577.52 L -474.61 -574.99 L -476.72 -572.27 L -478.64 -569.38 L -480.39 -566.33 L -482 -563.14 L -483.55 -559.83 L -485.14 -556.47 L -486.87 -553.12 L -488.8 -549.84 L -490.93 -546.73 L -493.27 -543.87 L -495.83 -541.31 L -498.6 -539.07 L -501.58 -537.16 L -504.74 -535.6 L -508.09 -534.36 L -511.58 -533.43 L -515.2 -532.78 L -518.92 -532.4 L -522.72 -532.33 L -526.58 -532.57 L -530.44 -533.16 L -534.27 -534.11 L -538.02 -535.42 L -541.67 -537.08 L -545.22 -539.07 L -548.68 -541.35 L -552.08 -543.87 L -555.44 -546.59 L -558.84 -549.43 L -562.35 -552.27 L -566.05 -555.02 L -569.89 -557.6 L -573.72 -559.86 L -577.36 -561.74 L -580.76 -563.24 L -584.02 -564.44 L -587.21 -565.38 L -590.32 -566.07 L -593.34 -566.51 L -596.31 -566.69 L -599.16 -566.63 L -601.89 -566.33 L -604.52 -565.83 L -607.09 -565.14 L -609.63 -564.24 L -612.15 -563.13 L -614.66 -561.78 L -617.17 -560.2 L -619.67 -558.4 L -622.14 -556.38 L -624.53 -554.15 L -626.8 -551.7 L -628.85 -549.07 L -630.64 -546.3 L -632.14 -543.4 L -633.36 -540.37 L -634.32 -537.2 L -635.06 -533.88 L -635.51 -531.35 L -636.01 -527.75 L -636.43 -523.97 L -636.79 -520.01 L -637.1 -515.86 L -637.34 -511.52 L -637.49 -507.02 L -637.55 -502.29 L -637.56 -497.37 L -637.5 -492.24 L -637.41 -486.89 L -637.34 -481.33 L -637.3 -475.56 L -637.28 -469.61 L -637.26 -463.48 L -637.22 -457.18 L -637.16 -450.72 L -637.13 -444.1 L -637.11 -437.33 L -637.1 -430.41 L -637.06 -423.33 L -637.02 -416.11 L -636.99 -408.76 L -636.96 -401.28 L -636.92 -393.66 L -636.9 -385.91 L -636.91 -378.03 L -636.94 -370.03 L -637 -361.9 L -637.07 -353.69 L -637.16 -345.5 L -637.27 -337.41 L -637.41 -329.45 L -637.58 -321.64 L -637.78 -313.97 L -638.01 -306.45 L -638.26 -299.06 L -638.52 -291.82 L -638.78 -284.71 L -639.05 -277.71 L -639.32 -270.8 L -639.59 -263.95 L -639.88 -257.13 L -640.21 -250.35 L -640.57 -243.62 L -641.02 -236.95 L -641.57 -230.36 L -642.21 -223.85 L -642.93 -217.42 L -643.73 -211.08 L -644.61 -204.81 L -645.6 -198.63 L -646.7 -192.55 L -647.9 -186.55 L -649.23 -180.65 L -650.66 -174.84 L -652.18 -169.09 L -653.8 -163.4 L -655.53 -157.81 L -657.34 -152.31 L -659.2 -146.9 L -661.12 -141.59 L -663.11 -136.41 L -665.17 -131.37 L -667.28 -126.46 L -669.43 -121.66 L -671.63 -116.98 L -673.75 -112.71 L -676.1 -108.23 L -678.56 -103.86 L -681.11 -99.61 L -683.79 -95.47 L -686.6 -91.42 L -689.54 -87.42 L -692.62 -83.5 L -695.83 -79.64 L -699.15 -75.84 L -702.56 -72.1 L -706.06 -68.43 L -709.65 -64.83 L -713.33 -61.29 L -717.12 -57.78 L -721.07 -54.28 L -725.17 -50.77 L -729.42 -47.28 L -733.82 -43.82 L -738.36 -40.42 L -743.03 -37.11 L -747.82 -33.89 L -752.73 -30.78 L -757.75 -27.78 L -762.85 -24.9 L -768.05 -22.14 L -773.32 -19.49 L -778.68 -16.93 L -784.15 -14.41 L -789.75 -11.95 L -795.47 -9.53 L -801.33 -7.17 L -807.34 -4.84 L -813.48 -2.55 L -819.73 -.27 L -826.01 1.99 L -832.19 4.23 L -838.21 6.5 L -844.06 8.8 L -849.75 11.14 L -855.31 13.49 L -860.75 15.85 L -866.08 18.21 L -871.3 20.59 L -876.42 22.98 L -881.46 25.41 L -886.41 27.91 L -891.26 30.53 L -896.02 33.26 L -900.68 36.14 L -905.22 39.16 L -909.66 42.34 L -913.98 45.68 L -918.21 49.18 L -922.34 52.88 L -926.37 56.76 L -930.32 60.84 L -934.2 65.1 L -938.03 69.53 L -941.83 74.13 L -945.58 78.86 L -949.26 83.75 L -952.82 88.83 L -956.26 94.08 L -959.55 99.48 L -962.71 105.03 L -965.73 110.7 L -968.4 116.08 L -971.1 121.89 L -973.57 127.68 L -975.8 133.45 L -977.82 139.19 L -979.63 144.92 L -981.3 150.67 L -982.86 156.5 L -984.34 162.43 L -985.76 168.5 L -987.13 174.71 L -988.46 181.04 L -989.74 187.43 L -990.9 193.47 L -991.89 198.94 L -992.73 203.8 L -993.4 208.06 L -993.96 211.81 L -994.43 215.21 L -994.86 218.41 L -995.23 221.47 L -995.55 224.44 L -995.81 227.25 L -995.98 229.84 L -996.07 232.2 L -996.09 234.38 L -996.05 236.43 L -995.94 238.42 L -995.78 240.36 L -995.56 242.27 L -995.27 244.14 L -994.9 246.02 L -994.45 247.93 L -993.9 249.86 L -993.26 251.81 L -992.51 253.77 L -991.65 255.69 L -990.7 257.52 L -989.65 259.24 L -988.5 260.84 L -987.22 262.38 L -985.8 263.86 L -984.23 265.3 L -982.49 266.69 L -980.59 268.08 L -978.55 269.48 L -976.36 270.94 L -973.97 272.46 L -971.37 274.03 L -968.51 275.61 L -965.39 277.17 L -962.05 278.69 L -958.5 280.23 L -954.78 281.82 L -950.93 283.49 L -946.95 285.25 L -942.84 287.07 L -938.58 288.96 L -934.17 290.95 L -929.66 293.03 L -925.02 295.22 L -920.26 297.51 L -915.38 299.9 L -910.36 302.38 L -905.23 304.96 L -899.96 307.63 L -894.93 310.22 L -889.4 313.08 L -883.73 316.04 L -877.92 319.09 L -871.97 322.23 L -865.9 325.45 L -859.68 328.78 L -853.34 332.19 L -846.87 335.68 L -840.29 339.25 L -833.58 342.87 L -826.76 346.53 L -819.83 350.23 L -812.8 353.98 L -805.66 357.77 L -798.46 361.6 L -791.23 365.47 L -784 369.4 L -776.8 373.37 L -769.6 377.36 L -762.42 381.35 L -755.23 385.33 L -748.04 389.3 L -740.84 393.26 L -733.61 397.21 L -726.32 401.15 L -718.94 405.11 L -711.47 409.08 L -703.92 413.08 L -696.3 417.09 L -688.61 421.12 L -680.91 425.15 L -673.22 429.13 L -665.58 433.03 L -657.97 436.84 L -650.39 440.54 L -642.83 444.12 L -635.31 447.62 L -627.82 451.04 L -620.38 454.38 L -612.94 457.67 L -605.51 460.9 L -598.06 464.09 L -590.61 467.23 L -583.14 470.3 L -575.64 473.3 L -568.12 476.22 L -560.58 479.11 L -553.02 481.98 L -545.4 484.81 L -537.71 487.61 L -529.91 490.39 L -522.03 493.18 L -514.06 495.97 L -506 498.76 L -497.86 501.53 L -489.64 504.28 L -481.32 506.98 L -472.94 509.6 L -464.49 512.16 L -455.99 514.66 L -447.42 517.11 L -438.8 519.5 L -430.14 521.85 L -421.42 524.16 L -412.67 526.44 L -405.63 528.23 L -396.8 530.43 L -388.51 532.44 L -379.59 534.54 L -370.62 536.58 L -361.61 538.57 L -352.57 540.5 L -343.47 542.37 L -334.33 544.19 L -325.16 545.96 L -315.95 547.69 L -306.71 549.38 L -297.42 551.04 L -288.11 552.64 L -278.76 554.21 L -269.38 555.74 L -259.96 557.23 L -250.52 558.67 L -241.04 560.07 L -231.53 561.42 L -221.99 562.73 L -212.42 563.99 L -202.83 565.2 L -193.22 566.33 L -183.59 567.39 L -173.93 568.39 L -164.27 569.33 L -154.58 570.22 L -144.88 571.05 L -135.16 571.8 L -125.43 572.47 L -115.68 573.05 L -105.91 573.54 L -96.13 573.95 L -86.34 574.29 L -76.53 574.57 L -66.71 574.81 L -56.87 575 L -47.01 575.12 L -37.14 575.18 L -27.25 575.2 L -17.33 575.19 L -7.41 575.17 L 2.53 575.13 L 12.48 575.1 L 22.44 575.06 L 32.41 575.02 L 42.4 574.98 L 52.4 574.93 L 62.41 574.88 L 72.44 574.82 L 82.48 574.75 L 92.52 574.69 L 102.58 574.63 L 112.64 574.6 L 122.71 574.59 L 132.79 574.62 L 142.87 574.68 L 152.96 574.79 L 163.05 574.95 L 173.16 575.13 L 183.25 575.34 L 193.35 575.57 L 203.46 575.82 L 213.57 576.09 L 223.68 576.37 L 233.79 576.67 L 243.91 576.99 L 253.34 577.3 L 263.48 577.63 L 273.66 577.94 L 283.92 578.23 L 294.28 578.51 L 304.7 578.77 L 315.23 579.04 L 325.84 579.3 L 336.55 579.57 L 347.35 579.83 L 358.24 580.09 L 369.22 580.36 L 380.28 580.62 L 391.42 580.89 L 402.64 581.16 L 413.92 581.46 L 425.27 581.78 L 436.68 582.12 L 448.14 582.45 L 459.67 582.76 L 471.24 583.09 L 482.86 583.45 L 494.52 583.82 L 506.22 584.2 L 517.96 584.56 L 529.73 584.93 L 541.53 585.3 L 553.36 585.68 L 565.22 586.08 L 577.1 586.49 L 589 586.9 L 600.93 587.31 L 612.86 587.71 L 624.76 588.11 L 636.62 588.5 L 648.34 588.88 L 659.77 589.26 L 670.82 589.62 L 681.5 589.96 L 691.78 590.29 L 701.72 590.6 L 711.51 590.88 L 721.28 591.12 L 731.04 591.32 L 740.83 591.47 L 750.64 591.59 L 760.46 591.71 L 770.09 591.82 L 779.24 591.94 L 787.82 592.05 L 795.82 592.15 L 803.43 592.23 L 810.87 592.26 L 818.15 592.23 L 825.17 592.16 L 831.75 592.06 L 837.8 591.95 L 843.34 591.82 L 848.53 591.62 L 853.47 591.34 L 857.92 590.96 L 861.82 590.51 L 865.5 589.93 L 869.04 589.21 L 872.45 588.32 L 875.69 587.23 L 878.16 586.2 L 883.08 583.46 L 885.69 581.57 L 888.16 579.48 L 890.48 577.18 L 892.64 574.69 L 894.64 571.99 L 896.45 569.09 L 898.05 566 L 899.44 562.71 L 900.63 559.23 L 901.69 555.53 L 902.71 551.64 L 903.78 547.53 L 905.01 543.25 L 906.47 538.82 L 908.19 534.29 L 910.19 529.77 L 912.44 525.39 L 914.95 521.28 L 917.72 517.46 L 920.69 513.94 L 923.78 510.61 L 926.88 507.29 L 929.9 503.85 L 932.81 500.22 L 935.59 496.38 L 938.23 492.35 L 940.71 488.12 L 943.02 483.71 L 945.15 479.12 L 947.09 474.35 L 948.85 469.42 L 950.46 464.34 L 951.95 459.1 L 953.34 453.73 L 954.59 448.21 L 955.65 442.56 L 956.45 436.8 L 956.99 430.93 L 957.27 424.98 L 957.32 418.95 L 957.2 412.84 L 956.97 406.63 L 956.7 400.3 L 956.49 393.83 L 956.39 387.2 L 956.38 380.42 L 956.37 373.44 L 956.35 366.25 L 956.3 358.82 L 956.22 351.16 L 956.11 343.25 L 955.98 335.1 L 955.82 326.74 L 955.63 318.17 L 955.42 309.39 L 955.19 300.41 L 954.96 291.27 L 954.75 282.02 L 954.57 272.71 L 954.41 263.4 L 954.28 254.1 L 954.19 244.82 L 954.11 235.55 L 954.05 226.29 L 953.99 217.05 L 953.92 208.44 L 953.85 201.08 L 953.76 191.9 L 953.65 182.73 L 953.55 173.6 L 953.46 164.48 L 953.41 155.38 L 953.4 146.31 L 953.42 137.27 L 953.45 128.25 L 953.5 119.23 L 953.55 110.27 L 953.59 101.33 L 953.66 92.4 L 953.76 83.5 L 953.89 74.63 L 954.04 65.78 L 954.22 56.95 L 954.4 48.13 L 954.57 39.23 L 954.75 30.19 L 954.93 20.98 L 955.12 11.61 L 955.31 2.11 L 955.5 -7.48 L 955.67 -17.1 L 955.82 -26.6 L 955.93 -36.01 L 956.01 -45.32 L 956.06 -54.55 L 956.11 -63.68 L 956.16 -72.72 L 956.23 -81.67 L 956.31 -90.53 L 956.39 -99.29 L 956.48 -107.97 L 956.57 -116.55 L 956.67 -125.06 L 956.76 -133.47 L 956.82 -141.8 L 956.81 -150.05 L 956.74 -158.2 L 956.57 -166.25 L 956.31 -174.01 L 955.95 -181.47 L 955.53 -188.77 L 955.06 -195.92 L 954.5 -202.9 L 953.84 -209.75 L 953.04 -216.52 L 952.09 -223.22 L 950.98 -229.84 L 949.67 -236.38 L 948.17 -242.83 L 946.46 -249.21 L 944.54 -255.53 L 942.45 -261.79 L 940.21 -268.04 L 937.83 -274.3 L 935.35 -280.57 L 932.75 -286.86 L 930 -293.16 L 927.08 -299.45 L 923.97 -305.71 L 920.68 -311.95 L 917.2 -318.2 L 913.56 -324.41 L 909.99 -330.2 L 905.97 -336.38 L 901.74 -342.52 L 897.31 -348.61 L 892.66 -354.63 L 887.81 -360.58 L 882.76 -366.44 L 877.52 -372.21 z" stroke="#000" stroke-width="8" fill="none"/>
</svg>
