<?xml version="1.0" encoding="UTF-8" standalone="no"?>
<svg xmlns="http://www.w3.org/2000/svg" height="1613.69" viewBox="0.48800 102.70900 2338.72900 1613.68500" width="2338.73" version="1.1">
<path d="M130.321 338.227c-3.32.594-4.154 4.666-2.204 7.041 1.953 2.373 4.907 5.042 5.492 10.38.586 5.338.976 10.999 1.22 16.683.2 4.648-1.448 10.698-6.468 11.493-7.81 1.236-54.176 9.162-60.036 10.133-6.712 1.113-13.62-1.655-14.398-6.798-.781-5.14-22.404-141.414-23.185-145.566-.779-4.152-2.075-5.067-6.712-5.19-5.004-.132-8.317-2.16-8.542-7.291-.244-5.562-.488-12.357-.488-16.189 0-7.786 5.369-16.806 15.498-22.984 5.537-3.379 78.226-48.87 89.078-55.607 18.914-11.74 45.539-16.623 65.771-14.581 21.518 2.173 31.606 11.493 35.755 15.57 1.99 1.957 5.59 3.584 9.884.619 4.298-2.966 6.065-2.08 11.227-3.213 3.727-.819 13.633-3.614 16.107-4.449 5.857-1.977 16.062-12.956 26.236-14.828 8.054-1.483 16.718-2.349 22.94-5.437 3.661-1.817 5.172-.975 8.177 2.965 5.37 7.045 12.325 5.438 19.159.62 5.537-3.906 11.54-6.007 20.379-5.81 16.474.372 82.404 1.94 91.518 1.855 25.992-.247 40.525 24.758 37.95 42.014-3.783 25.333-34.778 40.409-57.23 22.49-8.942-7.136-50.284-39.851-59.183-47.576-6.833-5.931-14.521-3.831-17.45.125-5.2 7.02-16.351 22.49-20.867 28.546-1.9 2.546-5.125 5.314-10.982 5.314h-29.042c-20.367 0-30.629 19.03-31.238 32.5-.445 9.836-.594 23.109-.732 28.174-.123 4.449.816 7.444 4.393 12.235 3.783 5.067 1.587 6.797-3.052 9.638-3.307 2.027-25.018 13.365-33.314 18.166-9.396 5.437-11.99 15.552-8.176 28.793.855 2.966 1.943 5.617 2.452 7.655 3.65 14.587-7.84 28.68-20.879 30.899-19.059 3.234-69.058 11.611-69.058 11.611z" stroke="#000" stroke-width="8" fill="none"/>
</svg>
