<?xml version="1.0" encoding="UTF-8" standalone="no"?>
<svg id="svg4136" xmlns:rdf="http://www.w3.org/1999/02/22-rdf-syntax-ns#" xmlns="http://www.w3.org/2000/svg" height="614.32" viewBox="0 0 749.19068 614.31634" width="749.19" version="1.1" xmlns:cc="http://creativecommons.org/ns#" xmlns:dc="http://purl.org/dc/elements/1.1/">
<path id="path4146" stroke-linejoin="round" d="m351.3 6.7633c-6.8626-0.28675-22.481 6.293-80.975 30.637-24.619 10.246-56.562 22.697-70.984 27.67-14.422 4.9727-33.198 11.478-41.723 14.455-8.525 2.9773-20.067 6.761-25.648 8.4082-52.86 15.6-82.828 49.747-87.797 100.04-4.3882 44.417 0.03301 60.873 23.746 88.404 19.222 22.317 10.9 40.954-13.439 30.102-24.792-11.054-36.699-9.2741-44.955 6.7207-6.9046 13.376-0.78742 24.508 13.75 29.971 2.0052 1.0075 4.1746 1.666 6.4512 1.916 6.8375 1.5658 14.959 2.1192 24.082 1.4062 26.651-2.0827 125.69-10.496 141.31-12.006 10.307-0.99584 64.365-5.4245 73.5-6.0215 5.225-0.34144 13.1-1.0361 17.5-1.543 6.3818-0.73523 60.167-4.9817 145-11.447 3.85-0.29343 13.525-0.98038 21.5-1.5273 13.605-0.93308 92.457-7.1657 132.5-10.473 45.109-3.7254 61.193 2.6455 55.633 22.033-4.479 15.617-5.6662 16.157-54.918 24.975-20.193 3.6151-45.265 8.1066-55.715 9.9824s-30.7 5.4714-45 7.9902-28.925 5.2445-32.5 6.0566c-7.2057 1.637-27.9 5.4701-59 10.926-11.275 1.9779-22.525 4.0205-25 4.541-2.475 0.52047-27.45 5.0451-55.5 10.055-222.02 39.653-221.94 39.636-228.72 46.732-23.594 24.68 28.844 76.231 76.389 75.098 21.167-0.50464 27.062-2.2273 56.479-16.506 57.577-27.947 40.228-34.589 150.51 57.615 16.775 14.025 32.009 26.625 33.854 28 1.8445 1.375 6.9342 5.3036 11.311 8.7305 5.1006 3.994 9.2532 6.4466 11.568 6.832 1.9864 0.33069 3.9774 0.6853 4.4238 0.78906 15.747 3.6601 44.614-42.254 49.213-78.275 5.0862-39.836-2.1236-55.092-37.025-78.352-18.342-12.223-27.823-19.754-28.697-24.838-0.0117-0.78725 0.0672-1.563 0.24219-2.3086 1.7183-3.8471 10.181-6.0551 25.262-8.1758 83.647-11.762 80.638-11.439 160.69-17.369 42.756-3.1673 87.125-6.5822 98-7.5449 20.357-1.8022 22.746-3.7735 30.572-25.201 1.8504-5.0666 5.0164-12.492 7.0352-16.5 13.63-27.063 18.32-17.947-48.531-94.287-73.233-83.628-70.809-81.018-80.551-86.748-9.4272-5.545-24.221-9.8946-31.525-9.2676-3.025 0.25966-8.0559 0.69725-11.18 0.9707-12.676 1.1096-31.595 12.66-42.422 25.9-34.43 42.11-100.77 34.93-122.1-13.23-4.43-10.01-12.15-41.79-18.86-77.63-10.83-57.903-12.42-66.866-12.42-70.054-0.01-3.823-4.7-11.347-9.24-14.815-2.05-1.5623-3.4-2.7255-6.08-2.8377z" stroke="#000" stroke-width="13.5" fill="none"/>
</svg>
